<?xml version="1.0" encoding="UTF-8" standalone="no" ?>
<!DOCTYPE svg PUBLIC "-//W3C//DTD SVG 1.1//EN" "http://www.w3.org/Graphics/SVG/1.1/DTD/svg11.dtd">
<svg xmlns="http://www.w3.org/2000/svg" xmlns:xlink="http://www.w3.org/1999/xlink" version="1.1" width="200" height="250" viewBox="-10 0 220 250" xml:space="preserve">
<desc>Created with Fabric.js 3.6.6</desc>
<defs>
</defs>
<g transform="matrix(-1.18 0.01 -0.01 -1.18 -64.38 -54.1)"  >
<polygon style="stroke: rgb(255,255,255); stroke-width: 8; stroke-dasharray: none; stroke-linecap: butt; stroke-dashoffset: 0; stroke-linejoin: miter; stroke-miterlimit: 4; fill: none; fill-rule: nonzero; opacity: 1;"  points="0,-42.5 50,42.5 -50,42.5 " />
</g>
<g transform="matrix(1 0 0 1 101.22 127.75)"  >
<g style=""   >
		<g transform="matrix(-1.18 0 0 -1.18 -22.4 57.91)"  >
<polygon style="stroke: rgb(255,255,255); stroke-width: 8; stroke-dasharray: none; stroke-linecap: butt; stroke-dashoffset: 0; stroke-linejoin: miter; stroke-miterlimit: 4; fill: none; fill-rule: nonzero; opacity: 1;"  points="0,-42.5 50,42.5 -50,42.5 " />
</g>
		<g transform="matrix(-1.18 0.01 -0.01 -1.18 21.81 57.17)"  >
<polygon style="stroke: rgb(255,255,255); stroke-width: 8; stroke-dasharray: none; stroke-linecap: butt; stroke-dashoffset: 0; stroke-linejoin: miter; stroke-miterlimit: 4; fill: none; fill-rule: nonzero; opacity: 1;"  points="0,-42.5 50,42.5 -50,42.5 " />
</g>
		<g transform="matrix(1.18 0 0 1.18 -22.4 -57.98)"  >
<polygon style="stroke: rgb(255,255,255); stroke-width: 8; stroke-dasharray: none; stroke-linecap: butt; stroke-dashoffset: 0; stroke-linejoin: miter; stroke-miterlimit: 4; fill: none; fill-rule: nonzero; opacity: 1;"  points="0,-42.5 50,42.5 -50,42.5 " />
</g>
		<g transform="matrix(1.18 0 0 1.18 19.6 -57.98)"  >
<polygon style="stroke: rgb(255,255,255); stroke-width: 8; stroke-dasharray: none; stroke-linecap: butt; stroke-dashoffset: 0; stroke-linejoin: miter; stroke-miterlimit: 4; fill: none; fill-rule: nonzero; opacity: 1;"  points="0,-42.5 50,42.5 -50,42.5 " />
</g>
</g>
</g>
</svg>