<svg xmlns="http://www.w3.org/2000/svg" viewBox="0 0 180 180">
<rect width="100%" height="100%" fill="white"/>
<path d="M74.0,0.0 L74.0,0.0 L74.0,0.0 Z M105.0,0.0 L105.0,0.0 L105.0,0.0 Z M179.0,75.0 L179.0,75.0 L179.0,75.0 Z M0.0,75.0 L0.0,75.0 L0.0,75.0 Z M179.0,104.0 L179.0,104.0 L179.0,104.0 Z M0.0,104.0 L0.0,104.0 L0.0,104.0 Z M75.0,179.0 L75.0,179.0 L74.0,179.0 L74.0,179.0 Z M105.0,179.0 L105.0,179.0 L105.0,179.0 Z M70.0,1.0 L70.0,1.0 L70.0,1.0 L71.0,1.0 L71.0,1.0 L71.0,1.0 L70.0,1.0 Z M108.0,1.0 L108.0,1.0 L108.0,1.0 L109.0,1.0 L109.0,1.0 L109.0,1.0 L108.0,1.0 Z M64.0,2.0 L64.0,2.0 L64.0,2.0 L65.0,2.0 L65.0,2.0 L65.0,2.0 L64.0,2.0 Z M67.0,2.0 L67.0,2.0 L67.0,2.0 L67.0,2.0 L67.0,2.0 Z M112.0,2.0 L112.0,2.0 L112.0,2.0 L112.0,2.0 L112.0,2.0 Z M114.0,2.0 L114.0,2.0 L114.0,2.0 L115.0,2.0 L115.0,2.0 L115.0,2.0 L114.0,2.0 Z M62.0,3.0 L62.0,3.0 L62.0,3.0 L62.0,3.0 L62.0,3.0 Z M117.0,3.0 L117.0,3.0 L117.0,3.0 L117.0,3.0 L117.0,3.0 Z M60.0,4.0 L60.0,4.0 L60.0,4.0 L60.0,4.0 L60.0,4.0 Z M83.0,4.0 L83.0,4.0 L82.0,5.0 L81.0,5.0 L80.0,5.0 L79.0,5.0 L78.0,5.0 L77.0,5.0 L76.0,5.0 L76.0,5.0 L75.0,6.0 L74.0,6.0 L73.0,6.0 L72.0,6.0 L71.0,6.0 L70.0,6.0 L70.0,6.0 L69.0,7.0 L68.0,7.0 L67.0,7.0 L67.0,7.0 L66.0,8.0 L65.0,8.0 L64.0,8.0 L64.0,8.0 L63.0,9.0 L62.0,9.0 L61.0,9.0 L60.0,9.0 L60.0,9.0 L59.0,10.0 L58.0,10.0 L58.0,10.0 L57.0,11.0 L56.0,11.0 L55.0,11.0 L55.0,11.0 L54.0,12.0 L54.0,12.0 L53.0,13.0 L52.0,13.0 L51.0,13.0 L51.0,13.0 L50.0,14.0 L49.0,14.0 L49.0,14.0 L48.0,15.0 L48.0,15.0 L47.0,16.0 L46.0,16.0 L46.0,16.0 L45.0,17.0 L44.0,17.0 L44.0,17.0 L43.0,18.0 L43.0,18.0 L42.0,19.0 L41.0,19.0 L41.0,19.0 L40.0,20.0 L40.0,20.0 L39.0,21.0 L39.0,21.0 L38.0,22.0 L37.0,22.0 L37.0,22.0 L36.0,23.0 L36.0,23.0 L35.0,24.0 L35.0,24.0 L34.0,25.0 L34.0,25.0 L33.0,26.0 L33.0,26.0 L32.0,27.0 L31.0,27.0 L31.0,27.0 L30.0,28.0 L30.0,28.0 L29.0,29.0 L29.0,29.0 L28.0,30.0 L28.0,30.0 L27.0,31.0 L27.0,31.0 L27.0,32.0 L26.0,33.0 L26.0,33.0 L25.0,34.0 L25.0,34.0 L24.0,35.0 L24.0,35.0 L23.0,36.0 L23.0,36.0 L22.0,37.0 L22.0,37.0 L22.0,38.0 L21.0,39.0 L21.0,39.0 L20.0,40.0 L20.0,40.0 L19.0,41.0 L19.0,41.0 L19.0,42.0 L18.0,43.0 L18.0,43.0 L17.0,44.0 L17.0,44.0 L17.0,45.0 L16.0,46.0 L16.0,46.0 L16.0,47.0 L15.0,48.0 L15.0,48.0 L15.0,49.0 L14.0,50.0 L14.0,50.0 L14.0,51.0 L13.0,52.0 L13.0,52.0 L13.0,53.0 L12.0,54.0 L12.0,54.0 L12.0,55.0 L11.0,56.0 L11.0,56.0 L11.0,57.0 L10.0,58.0 L10.0,58.0 L10.0,59.0 L10.0,60.0 L9.0,61.0 L9.0,61.0 L9.0,62.0 L9.0,63.0 L8.0,64.0 L8.0,64.0 L8.0,65.0 L8.0,66.0 L7.0,67.0 L7.0,67.0 L7.0,68.0 L7.0,69.0 L7.0,70.0 L6.0,71.0 L6.0,71.0 L6.0,72.0 L6.0,73.0 L6.0,74.0 L6.0,75.0 L6.0,76.0 L5.0,77.0 L5.0,77.0 L5.0,78.0 L5.0,79.0 L5.0,80.0 L5.0,81.0 L5.0,82.0 L5.0,83.0 L5.0,84.0 L4.0,85.0 L4.0,85.0 L4.0,86.0 L4.0,87.0 L4.0,88.0 L4.0,89.0 L4.0,90.0 L4.0,91.0 L4.0,92.0 L4.0,93.0 L4.0,94.0 L4.0,94.0 L5.0,95.0 L5.0,96.0 L5.0,97.0 L5.0,98.0 L5.0,99.0 L5.0,100.0 L5.0,101.0 L5.0,102.0 L5.0,102.0 L6.0,103.0 L6.0,104.0 L6.0,105.0 L6.0,106.0 L6.0,107.0 L6.0,108.0 L6.0,108.0 L7.0,109.0 L7.0,110.0 L7.0,111.0 L7.0,112.0 L7.0,112.0 L8.0,113.0 L8.0,114.0 L8.0,115.0 L8.0,115.0 L9.0,116.0 L9.0,117.0 L9.0,118.0 L9.0,118.0 L10.0,119.0 L10.0,120.0 L10.0,121.0 L10.0,121.0 L11.0,122.0 L11.0,123.0 L11.0,123.0 L12.0,124.0 L12.0,125.0 L12.0,125.0 L13.0,126.0 L13.0,127.0 L13.0,127.0 L14.0,128.0 L14.0,129.0 L14.0,129.0 L15.0,130.0 L15.0,131.0 L15.0,131.0 L16.0,132.0 L16.0,133.0 L16.0,133.0 L17.0,134.0 L17.0,134.0 L18.0,135.0 L18.0,136.0 L18.0,136.0 L19.0,137.0 L19.0,138.0 L19.0,138.0 L20.0,139.0 L20.0,139.0 L21.0,140.0 L21.0,140.0 L22.0,141.0 L22.0,142.0 L22.0,142.0 L23.0,143.0 L23.0,143.0 L24.0,144.0 L24.0,144.0 L25.0,145.0 L25.0,145.0 L26.0,146.0 L26.0,146.0 L27.0,147.0 L27.0,147.0 L28.0,148.0 L28.0,149.0 L28.0,149.0 L29.0,150.0 L29.0,150.0 L30.0,151.0 L30.0,151.0 L31.0,151.0 L32.0,152.0 L32.0,152.0 L33.0,153.0 L33.0,153.0 L34.0,154.0 L34.0,154.0 L35.0,155.0 L35.0,155.0 L36.0,156.0 L36.0,156.0 L37.0,157.0 L37.0,157.0 L38.0,157.0 L39.0,158.0 L39.0,158.0 L40.0,159.0 L40.0,159.0 L41.0,160.0 L41.0,160.0 L42.0,160.0 L43.0,161.0 L43.0,161.0 L44.0,162.0 L44.0,162.0 L45.0,162.0 L46.0,163.0 L46.0,163.0 L47.0,163.0 L48.0,164.0 L48.0,164.0 L49.0,164.0 L50.0,165.0 L50.0,165.0 L51.0,166.0 L51.0,166.0 L52.0,166.0 L53.0,166.0 L54.0,167.0 L54.0,167.0 L55.0,167.0 L56.0,168.0 L56.0,168.0 L57.0,168.0 L58.0,169.0 L58.0,169.0 L59.0,169.0 L60.0,169.0 L61.0,170.0 L61.0,170.0 L62.0,170.0 L63.0,170.0 L64.0,171.0 L64.0,171.0 L65.0,171.0 L66.0,171.0 L67.0,172.0 L67.0,172.0 L68.0,172.0 L69.0,172.0 L70.0,172.0 L71.0,173.0 L71.0,173.0 L72.0,173.0 L73.0,173.0 L74.0,173.0 L75.0,173.0 L76.0,174.0 L76.0,174.0 L77.0,174.0 L78.0,174.0 L79.0,174.0 L80.0,174.0 L81.0,174.0 L82.0,174.0 L83.0,174.0 L84.0,175.0 L84.0,175.0 L85.0,175.0 L86.0,175.0 L87.0,175.0 L88.0,175.0 L89.0,175.0 L90.0,175.0 L91.0,175.0 L92.0,175.0 L93.0,175.0 L94.0,175.0 L95.0,175.0 L95.0,175.0 L96.0,174.0 L97.0,174.0 L98.0,174.0 L99.0,174.0 L100.0,174.0 L101.0,174.0 L102.0,174.0 L103.0,174.0 L103.0,174.0 L104.0,173.0 L105.0,173.0 L106.0,173.0 L107.0,173.0 L108.0,173.0 L108.0,173.0 L109.0,172.0 L110.0,172.0 L111.0,172.0 L112.0,172.0 L112.0,172.0 L113.0,171.0 L114.0,171.0 L115.0,171.0 L115.0,171.0 L116.0,170.0 L117.0,170.0 L118.0,170.0 L118.0,170.0 L119.0,169.0 L120.0,169.0 L121.0,169.0 L121.0,169.0 L122.0,168.0 L123.0,168.0 L123.0,168.0 L124.0,167.0 L125.0,167.0 L125.0,167.0 L126.0,166.0 L127.0,166.0 L128.0,166.0 L128.0,166.0 L129.0,165.0 L130.0,165.0 L130.0,165.0 L131.0,164.0 L131.0,164.0 L132.0,163.0 L133.0,163.0 L133.0,163.0 L134.0,162.0 L135.0,162.0 L135.0,162.0 L136.0,161.0 L136.0,161.0 L137.0,160.0 L138.0,160.0 L138.0,160.0 L139.0,159.0 L139.0,159.0 L140.0,158.0 L140.0,158.0 L141.0,157.0 L142.0,157.0 L142.0,157.0 L143.0,156.0 L143.0,156.0 L144.0,155.0 L144.0,155.0 L145.0,154.0 L145.0,154.0 L146.0,153.0 L146.0,153.0 L147.0,152.0 L148.0,152.0 L148.0,152.0 L149.0,151.0 L149.0,151.0 L150.0,150.0 L150.0,150.0 L151.0,149.0 L151.0,149.0 L152.0,148.0 L152.0,148.0 L152.0,147.0 L153.0,146.0 L153.0,146.0 L154.0,145.0 L154.0,145.0 L155.0,144.0 L155.0,144.0 L156.0,143.0 L156.0,143.0 L157.0,142.0 L157.0,142.0 L157.0,141.0 L158.0,140.0 L158.0,140.0 L159.0,139.0 L159.0,139.0 L160.0,138.0 L160.0,138.0 L160.0,137.0 L161.0,136.0 L161.0,136.0 L161.0,135.0 L162.0,134.0 L162.0,134.0 L163.0,133.0 L163.0,133.0 L163.0,132.0 L164.0,131.0 L164.0,131.0 L164.0,130.0 L165.0,129.0 L165.0,129.0 L165.0,128.0 L166.0,127.0 L166.0,127.0 L166.0,126.0 L167.0,125.0 L167.0,125.0 L167.0,124.0 L168.0,123.0 L168.0,123.0 L168.0,122.0 L169.0,121.0 L169.0,121.0 L169.0,120.0 L169.0,119.0 L170.0,118.0 L170.0,118.0 L170.0,117.0 L170.0,116.0 L171.0,115.0 L171.0,115.0 L171.0,114.0 L171.0,113.0 L172.0,112.0 L172.0,112.0 L172.0,111.0 L172.0,110.0 L172.0,109.0 L173.0,108.0 L173.0,108.0 L173.0,107.0 L173.0,106.0 L173.0,105.0 L173.0,104.0 L173.0,103.0 L174.0,102.0 L174.0,102.0 L174.0,101.0 L174.0,100.0 L174.0,99.0 L174.0,98.0 L174.0,97.0 L174.0,96.0 L174.0,95.0 L175.0,94.0 L175.0,94.0 L175.0,93.0 L175.0,92.0 L175.0,91.0 L175.0,90.0 L175.0,89.0 L175.0,88.0 L175.0,87.0 L175.0,86.0 L175.0,85.0 L175.0,85.0 L174.0,84.0 L174.0,83.0 L174.0,82.0 L174.0,81.0 L174.0,80.0 L174.0,79.0 L174.0,78.0 L174.0,77.0 L174.0,77.0 L173.0,76.0 L173.0,75.0 L173.0,74.0 L173.0,73.0 L173.0,72.0 L173.0,71.0 L173.0,71.0 L172.0,70.0 L172.0,69.0 L172.0,68.0 L172.0,67.0 L172.0,67.0 L171.0,66.0 L171.0,65.0 L171.0,64.0 L171.0,64.0 L170.0,63.0 L170.0,62.0 L170.0,61.0 L170.0,61.0 L169.0,60.0 L169.0,59.0 L169.0,58.0 L169.0,58.0 L168.0,57.0 L168.0,56.0 L168.0,56.0 L167.0,55.0 L167.0,54.0 L167.0,54.0 L166.0,53.0 L166.0,52.0 L166.0,52.0 L165.0,51.0 L165.0,50.0 L165.0,50.0 L164.0,49.0 L164.0,48.0 L164.0,48.0 L163.0,47.0 L163.0,46.0 L163.0,46.0 L162.0,45.0 L162.0,45.0 L161.0,44.0 L161.0,43.0 L161.0,43.0 L160.0,42.0 L160.0,41.0 L160.0,41.0 L159.0,40.0 L159.0,40.0 L158.0,39.0 L158.0,39.0 L157.0,38.0 L157.0,37.0 L157.0,37.0 L156.0,36.0 L156.0,36.0 L155.0,35.0 L155.0,35.0 L154.0,34.0 L154.0,34.0 L153.0,33.0 L153.0,33.0 L152.0,32.0 L152.0,31.0 L152.0,31.0 L151.0,30.0 L151.0,30.0 L150.0,29.0 L150.0,29.0 L149.0,28.0 L149.0,28.0 L148.0,27.0 L148.0,27.0 L147.0,26.0 L147.0,26.0 L146.0,26.0 L145.0,25.0 L145.0,25.0 L144.0,24.0 L144.0,24.0 L143.0,23.0 L143.0,23.0 L142.0,22.0 L142.0,22.0 L141.0,22.0 L140.0,21.0 L140.0,21.0 L139.0,20.0 L139.0,20.0 L138.0,19.0 L138.0,19.0 L137.0,19.0 L136.0,18.0 L136.0,18.0 L135.0,17.0 L135.0,17.0 L134.0,17.0 L133.0,16.0 L133.0,16.0 L132.0,16.0 L131.0,15.0 L131.0,15.0 L130.0,14.0 L130.0,14.0 L129.0,14.0 L128.0,13.0 L128.0,13.0 L127.0,13.0 L126.0,13.0 L125.0,12.0 L125.0,12.0 L124.0,11.0 L124.0,11.0 L123.0,11.0 L122.0,11.0 L121.0,10.0 L121.0,10.0 L120.0,10.0 L119.0,9.0 L119.0,9.0 L118.0,9.0 L117.0,9.0 L116.0,9.0 L115.0,8.0 L115.0,8.0 L114.0,8.0 L113.0,8.0 L112.0,7.0 L112.0,7.0 L111.0,7.0 L110.0,7.0 L109.0,6.0 L109.0,6.0 L108.0,6.0 L107.0,6.0 L106.0,6.0 L105.0,6.0 L104.0,6.0 L103.0,5.0 L103.0,5.0 L102.0,5.0 L101.0,5.0 L100.0,5.0 L99.0,5.0 L98.0,5.0 L97.0,5.0 L96.0,4.0 L96.0,4.0 L95.0,4.0 L94.0,4.0 L93.0,4.0 L92.0,4.0 L91.0,4.0 L90.0,4.0 L89.0,4.0 L88.0,4.0 L87.0,4.0 L86.0,4.0 L85.0,4.0 L84.0,4.0 L83.0,4.0 Z M119.0,4.0 L119.0,4.0 L119.0,4.0 L119.0,4.0 L119.0,4.0 Z M57.0,5.0 L57.0,5.0 L57.0,5.0 L57.0,5.0 L57.0,5.0 Z M55.0,6.0 L55.0,6.0 L55.0,6.0 L55.0,6.0 L55.0,6.0 Z M124.0,6.0 L124.0,6.0 L124.0,6.0 L124.0,6.0 L124.0,6.0 Z M51.0,7.0 L51.0,7.0 L51.0,7.0 L51.0,7.0 L51.0,7.0 Z M128.0,7.0 L128.0,7.0 L128.0,7.0 L128.0,7.0 L128.0,7.0 Z M50.0,8.0 L50.0,8.0 L50.0,8.0 L50.0,8.0 L50.0,8.0 Z M129.0,8.0 L129.0,8.0 L129.0,8.0 L129.0,8.0 L129.0,8.0 Z M48.0,9.0 L48.0,9.0 L48.0,9.0 L48.0,9.0 L48.0,9.0 Z M46.0,10.0 L46.0,10.0 L46.0,10.0 L46.0,10.0 L46.0,10.0 Z M133.0,10.0 L133.0,10.0 L133.0,10.0 L133.0,10.0 L133.0,10.0 Z M86.0,10.0 L87.0,10.0 L88.0,10.0 L89.0,10.0 L90.0,10.0 L91.0,10.0 L92.0,10.0 L93.0,10.0 L94.0,11.0 L94.0,11.0 L95.0,12.0 L95.0,12.0 L96.0,13.0 L96.0,14.0 L96.0,15.0 L96.0,16.0 L95.0,17.0 L95.0,17.0 L94.0,18.0 L94.0,18.0 L94.0,18.0 L95.0,19.0 L95.0,19.0 L96.0,20.0 L95.0,21.0 L94.0,21.0 L93.0,21.0 L92.0,21.0 L91.0,20.0 L91.0,20.0 L90.0,19.0 L90.0,19.0 L90.0,19.0 L90.0,20.0 L89.0,21.0 L88.0,21.0 L87.0,21.0 L86.0,21.0 L85.0,20.0 L85.0,19.0 L85.0,18.0 L85.0,17.0 L85.0,16.0 L85.0,15.0 L85.0,14.0 L85.0,13.0 L85.0,12.0 L85.0,11.0 L86.0,10.0 Z M75.0,11.0 L76.0,11.0 L77.0,11.0 L78.0,11.0 L79.0,11.0 L80.0,11.0 L81.0,11.0 L82.0,11.0 L83.0,11.0 L84.0,12.0 L84.0,12.0 L85.0,13.0 L85.0,14.0 L85.0,15.0 L85.0,16.0 L84.0,17.0 L84.0,17.0 L83.0,18.0 L83.0,18.0 L82.0,19.0 L81.0,19.0 L81.0,19.0 L80.0,20.0 L80.0,20.0 L80.0,21.0 L79.0,22.0 L78.0,22.0 L77.0,22.0 L76.0,22.0 L75.0,21.0 L75.0,20.0 L75.0,19.0 L75.0,18.0 L75.0,17.0 L75.0,17.0 L74.0,16.0 L74.0,15.0 L74.0,14.0 L74.0,13.0 L74.0,12.0 L75.0,11.0 Z M100.0,11.0 L101.0,11.0 L102.0,11.0 L103.0,11.0 L104.0,11.0 L105.0,12.0 L105.0,12.0 L106.0,12.0 L107.0,13.0 L107.0,13.0 L108.0,14.0 L108.0,15.0 L108.0,16.0 L108.0,17.0 L108.0,18.0 L108.0,19.0 L107.0,20.0 L107.0,20.0 L106.0,21.0 L106.0,21.0 L105.0,22.0 L104.0,22.0 L104.0,22.0 L103.0,23.0 L102.0,23.0 L101.0,23.0 L100.0,22.0 L100.0,22.0 L99.0,22.0 L98.0,21.0 L98.0,21.0 L97.0,20.0 L97.0,19.0 L97.0,19.0 L96.0,18.0 L96.0,17.0 L96.0,16.0 L96.0,15.0 L97.0,14.0 L97.0,14.0 L97.0,13.0 L98.0,12.0 L99.0,12.0 L99.0,12.0 L100.0,11.0 Z M41.0,13.0 L41.0,13.0 L41.0,13.0 L41.0,13.0 L41.0,13.0 Z M138.0,13.0 L138.0,13.0 L138.0,13.0 L138.0,13.0 L138.0,13.0 Z M39.0,14.0 L39.0,14.0 L39.0,14.0 L40.0,14.0 L40.0,14.0 L40.0,14.0 L39.0,14.0 Z M67.0,13.0 L68.0,13.0 L69.0,14.0 L69.0,15.0 L69.0,16.0 L68.0,17.0 L68.0,17.0 L68.0,18.0 L68.0,19.0 L68.0,20.0 L68.0,21.0 L68.0,22.0 L68.0,23.0 L68.0,23.0 L69.0,24.0 L68.0,25.0 L67.0,25.0 L66.0,25.0 L65.0,25.0 L64.0,24.0 L64.0,23.0 L64.0,23.0 L63.0,22.0 L63.0,22.0 L62.0,21.0 L62.0,21.0 L61.0,20.0 L61.0,20.0 L60.0,19.0 L60.0,19.0 L59.0,18.0 L59.0,18.0 L59.0,18.0 L59.0,19.0 L59.0,20.0 L58.0,21.0 L57.0,21.0 L57.0,21.0 L57.0,21.0 L58.0,22.0 L58.0,23.0 L58.0,23.0 L59.0,24.0 L59.0,25.0 L59.0,25.0 L60.0,26.0 L60.0,27.0 L59.0,28.0 L59.0,28.0 L58.0,29.0 L57.0,29.0 L56.0,28.0 L56.0,28.0 L55.0,27.0 L55.0,26.0 L55.0,26.0 L54.0,25.0 L54.0,24.0 L54.0,24.0 L53.0,23.0 L53.0,23.0 L53.0,23.0 L52.0,24.0 L51.0,24.0 L50.0,23.0 L50.0,23.0 L49.0,22.0 L49.0,21.0 L50.0,20.0 L51.0,20.0 L51.0,20.0 L52.0,19.0 L53.0,19.0 L53.0,19.0 L54.0,18.0 L55.0,18.0 L55.0,18.0 L56.0,17.0 L57.0,17.0 L58.0,17.0 L58.0,17.0 L59.0,16.0 L60.0,16.0 L60.0,16.0 L61.0,15.0 L62.0,15.0 L63.0,16.0 L63.0,16.0 L64.0,17.0 L64.0,17.0 L64.0,17.0 L64.0,16.0 L64.0,15.0 L65.0,14.0 L66.0,14.0 L66.0,14.0 L67.0,13.0 Z M90.0,14.0 L90.0,14.0 L90.0,15.0 L90.0,15.0 L91.0,15.0 L91.0,15.0 L91.0,14.0 L91.0,14.0 L90.0,14.0 Z M111.0,13.0 L112.0,13.0 L113.0,14.0 L113.0,14.0 L114.0,14.0 L115.0,14.0 L116.0,14.0 L117.0,15.0 L117.0,16.0 L117.0,17.0 L117.0,18.0 L117.0,19.0 L116.0,20.0 L116.0,20.0 L116.0,21.0 L115.0,22.0 L115.0,22.0 L115.0,23.0 L114.0,24.0 L114.0,24.0 L113.0,25.0 L112.0,25.0 L111.0,25.0 L110.0,25.0 L109.0,24.0 L109.0,24.0 L108.0,24.0 L107.0,23.0 L107.0,22.0 L107.0,21.0 L108.0,20.0 L109.0,20.0 L110.0,20.0 L111.0,21.0 L111.0,21.0 L111.0,21.0 L111.0,20.0 L112.0,19.0 L112.0,19.0 L112.0,18.0 L112.0,17.0 L112.0,17.0 L111.0,17.0 L110.0,16.0 L110.0,16.0 L109.0,15.0 L110.0,14.0 L110.0,14.0 L111.0,13.0 Z M139.0,14.0 L139.0,14.0 L139.0,14.0 L140.0,14.0 L140.0,14.0 L140.0,14.0 L139.0,14.0 Z M38.0,15.0 L38.0,15.0 L38.0,15.0 L38.0,15.0 L38.0,15.0 Z M79.0,15.0 L79.0,15.0 L79.0,16.0 L79.0,16.0 L80.0,16.0 L80.0,16.0 L80.0,15.0 L80.0,15.0 L79.0,15.0 Z M101.0,15.0 L101.0,15.0 L101.0,16.0 L101.0,17.0 L101.0,18.0 L101.0,18.0 L102.0,19.0 L102.0,19.0 L102.0,19.0 L103.0,18.0 L103.0,18.0 L104.0,17.0 L104.0,17.0 L104.0,16.0 L104.0,16.0 L103.0,15.0 L103.0,15.0 L102.0,15.0 L101.0,15.0 Z M141.0,15.0 L141.0,15.0 L141.0,15.0 L141.0,15.0 L141.0,15.0 Z M37.0,16.0 L37.0,16.0 L37.0,16.0 L37.0,16.0 L37.0,16.0 Z M142.0,16.0 L142.0,16.0 L142.0,16.0 L142.0,16.0 L142.0,16.0 Z M35.0,17.0 L35.0,17.0 L35.0,17.0 L35.0,17.0 L35.0,17.0 Z M119.0,16.0 L120.0,16.0 L121.0,16.0 L122.0,17.0 L122.0,17.0 L123.0,17.0 L124.0,18.0 L124.0,18.0 L125.0,18.0 L126.0,19.0 L126.0,19.0 L127.0,20.0 L127.0,21.0 L126.0,22.0 L126.0,22.0 L125.0,23.0 L125.0,23.0 L125.0,24.0 L124.0,25.0 L123.0,25.0 L122.0,25.0 L121.0,25.0 L121.0,25.0 L121.0,25.0 L122.0,25.0 L123.0,26.0 L123.0,26.0 L124.0,27.0 L124.0,28.0 L123.0,29.0 L122.0,29.0 L121.0,29.0 L120.0,28.0 L120.0,28.0 L119.0,28.0 L118.0,27.0 L118.0,27.0 L117.0,27.0 L116.0,27.0 L115.0,26.0 L115.0,25.0 L115.0,24.0 L116.0,23.0 L116.0,23.0 L116.0,22.0 L116.0,21.0 L117.0,20.0 L117.0,20.0 L117.0,19.0 L118.0,18.0 L118.0,18.0 L118.0,17.0 L119.0,16.0 Z M34.0,18.0 L34.0,18.0 L34.0,18.0 L34.0,18.0 L34.0,18.0 Z M145.0,18.0 L145.0,18.0 L145.0,18.0 L145.0,18.0 L145.0,18.0 Z M33.0,19.0 L33.0,19.0 L33.0,19.0 L33.0,19.0 L33.0,19.0 Z M146.0,19.0 L146.0,19.0 L146.0,19.0 L146.0,19.0 L146.0,19.0 Z M148.0,20.0 L148.0,20.0 L148.0,20.0 L148.0,20.0 L148.0,20.0 Z M30.0,21.0 L30.0,21.0 L30.0,21.0 L30.0,21.0 L30.0,21.0 Z M122.0,21.0 L122.0,21.0 L122.0,21.0 L122.0,21.0 L122.0,21.0 Z M149.0,21.0 L149.0,21.0 L149.0,21.0 L149.0,21.0 L149.0,21.0 Z M124.0,22.0 L124.0,22.0 L124.0,22.0 L124.0,22.0 L124.0,22.0 Z M47.0,22.0 L48.0,22.0 L49.0,23.0 L49.0,23.0 L50.0,24.0 L49.0,25.0 L49.0,25.0 L49.0,25.0 L50.0,25.0 L51.0,26.0 L51.0,27.0 L51.0,28.0 L50.0,29.0 L50.0,29.0 L50.0,29.0 L51.0,29.0 L51.0,29.0 L52.0,28.0 L53.0,28.0 L54.0,29.0 L54.0,30.0 L54.0,31.0 L53.0,32.0 L52.0,32.0 L52.0,32.0 L51.0,33.0 L51.0,33.0 L50.0,34.0 L49.0,34.0 L49.0,34.0 L48.0,35.0 L47.0,35.0 L46.0,34.0 L46.0,34.0 L45.0,33.0 L45.0,33.0 L44.0,32.0 L44.0,31.0 L44.0,31.0 L43.0,30.0 L43.0,30.0 L42.0,29.0 L42.0,28.0 L42.0,28.0 L41.0,27.0 L42.0,26.0 L42.0,26.0 L43.0,25.0 L43.0,25.0 L44.0,24.0 L45.0,24.0 L45.0,24.0 L46.0,23.0 L46.0,23.0 L47.0,22.0 Z M128.0,22.0 L129.0,22.0 L130.0,22.0 L131.0,22.0 L132.0,22.0 L133.0,23.0 L133.0,23.0 L134.0,23.0 L135.0,24.0 L135.0,24.0 L136.0,25.0 L136.0,26.0 L136.0,27.0 L136.0,28.0 L135.0,29.0 L134.0,29.0 L133.0,28.0 L133.0,28.0 L132.0,27.0 L132.0,27.0 L131.0,26.0 L131.0,26.0 L131.0,26.0 L130.0,27.0 L129.0,27.0 L129.0,27.0 L129.0,28.0 L129.0,29.0 L129.0,29.0 L130.0,30.0 L130.0,30.0 L131.0,30.0 L132.0,31.0 L132.0,31.0 L133.0,32.0 L133.0,33.0 L132.0,34.0 L131.0,34.0 L130.0,34.0 L129.0,34.0 L128.0,33.0 L128.0,33.0 L127.0,33.0 L126.0,32.0 L126.0,32.0 L125.0,31.0 L125.0,30.0 L125.0,30.0 L124.0,29.0 L124.0,28.0 L124.0,27.0 L125.0,26.0 L125.0,26.0 L125.0,25.0 L126.0,24.0 L126.0,24.0 L127.0,23.0 L127.0,23.0 L128.0,22.0 Z M151.0,23.0 L151.0,23.0 L151.0,23.0 L151.0,23.0 L151.0,23.0 Z M27.0,24.0 L27.0,24.0 L27.0,24.0 L27.0,24.0 L27.0,24.0 Z M120.0,24.0 L120.0,24.0 L120.0,24.0 L120.0,24.0 L120.0,24.0 Z M152.0,24.0 L152.0,24.0 L152.0,24.0 L152.0,24.0 L152.0,24.0 Z M26.0,25.0 L26.0,25.0 L26.0,25.0 L26.0,25.0 L26.0,25.0 Z M153.0,25.0 L153.0,25.0 L153.0,25.0 L153.0,25.0 L153.0,25.0 Z M25.0,26.0 L25.0,26.0 L25.0,26.0 L25.0,26.0 L25.0,26.0 Z M48.0,26.0 L48.0,26.0 L48.0,26.0 L48.0,26.0 L48.0,26.0 Z M89.0,25.0 L90.0,26.0 L90.0,26.0 L91.0,27.0 L91.0,28.0 L91.0,28.0 L92.0,29.0 L92.0,29.0 L93.0,30.0 L93.0,30.0 L94.0,31.0 L94.0,32.0 L94.0,32.0 L95.0,33.0 L95.0,33.0 L96.0,34.0 L96.0,35.0 L96.0,35.0 L97.0,36.0 L97.0,36.0 L98.0,37.0 L98.0,38.0 L98.0,38.0 L99.0,39.0 L99.0,39.0 L100.0,40.0 L100.0,41.0 L100.0,41.0 L101.0,42.0 L101.0,42.0 L102.0,43.0 L102.0,44.0 L102.0,44.0 L103.0,45.0 L103.0,45.0 L104.0,46.0 L104.0,47.0 L104.0,47.0 L105.0,47.0 L106.0,47.0 L107.0,47.0 L108.0,47.0 L109.0,47.0 L110.0,48.0 L110.0,48.0 L111.0,48.0 L112.0,48.0 L113.0,48.0 L114.0,48.0 L115.0,48.0 L116.0,48.0 L117.0,48.0 L118.0,48.0 L119.0,49.0 L119.0,49.0 L120.0,50.0 L120.0,51.0 L120.0,51.0 L121.0,52.0 L121.0,53.0 L121.0,54.0 L121.0,54.0 L122.0,55.0 L122.0,56.0 L122.0,57.0 L122.0,58.0 L122.0,58.0 L123.0,59.0 L123.0,60.0 L123.0,61.0 L123.0,61.0 L124.0,62.0 L124.0,63.0 L124.0,64.0 L124.0,64.0 L125.0,65.0 L125.0,66.0 L125.0,67.0 L125.0,67.0 L126.0,67.0 L126.0,67.0 L127.0,66.0 L128.0,66.0 L129.0,66.0 L130.0,66.0 L131.0,66.0 L132.0,67.0 L132.0,68.0 L132.0,68.0 L133.0,69.0 L133.0,70.0 L133.0,71.0 L133.0,72.0 L133.0,73.0 L133.0,73.0 L134.0,74.0 L134.0,75.0 L134.0,76.0 L134.0,77.0 L134.0,78.0 L134.0,78.0 L135.0,79.0 L135.0,80.0 L135.0,81.0 L135.0,82.0 L135.0,83.0 L135.0,83.0 L136.0,84.0 L136.0,85.0 L136.0,86.0 L136.0,87.0 L136.0,88.0 L136.0,89.0 L136.0,89.0 L137.0,90.0 L137.0,91.0 L137.0,92.0 L137.0,93.0 L137.0,94.0 L137.0,94.0 L138.0,95.0 L138.0,96.0 L138.0,97.0 L138.0,97.0 L139.0,98.0 L139.0,99.0 L139.0,99.0 L140.0,100.0 L140.0,101.0 L140.0,101.0 L141.0,102.0 L141.0,103.0 L141.0,103.0 L142.0,104.0 L142.0,105.0 L142.0,105.0 L143.0,106.0 L143.0,107.0 L143.0,107.0 L144.0,108.0 L144.0,109.0 L144.0,109.0 L145.0,110.0 L145.0,111.0 L145.0,111.0 L146.0,112.0 L146.0,113.0 L146.0,114.0 L146.0,114.0 L147.0,115.0 L147.0,116.0 L147.0,116.0 L148.0,117.0 L148.0,118.0 L148.0,119.0 L148.0,120.0 L148.0,121.0 L148.0,122.0 L148.0,122.0 L149.0,123.0 L149.0,124.0 L149.0,125.0 L149.0,126.0 L149.0,127.0 L148.0,128.0 L148.0,128.0 L147.0,129.0 L147.0,129.0 L146.0,130.0 L145.0,130.0 L144.0,130.0 L144.0,130.0 L143.0,131.0 L142.0,131.0 L142.0,131.0 L141.0,132.0 L140.0,132.0 L139.0,132.0 L139.0,132.0 L138.0,133.0 L137.0,133.0 L136.0,133.0 L136.0,133.0 L135.0,134.0 L134.0,134.0 L133.0,134.0 L133.0,134.0 L132.0,135.0 L131.0,135.0 L131.0,135.0 L130.0,136.0 L129.0,136.0 L128.0,136.0 L128.0,136.0 L127.0,137.0 L126.0,137.0 L125.0,137.0 L125.0,137.0 L124.0,138.0 L123.0,138.0 L122.0,138.0 L121.0,138.0 L120.0,138.0 L119.0,138.0 L118.0,138.0 L117.0,138.0 L116.0,138.0 L115.0,138.0 L114.0,138.0 L113.0,138.0 L112.0,138.0 L111.0,138.0 L110.0,138.0 L109.0,138.0 L108.0,138.0 L107.0,138.0 L106.0,138.0 L105.0,138.0 L104.0,138.0 L103.0,138.0 L102.0,138.0 L101.0,138.0 L100.0,138.0 L99.0,138.0 L98.0,138.0 L97.0,138.0 L96.0,138.0 L95.0,138.0 L94.0,138.0 L93.0,138.0 L92.0,138.0 L91.0,138.0 L90.0,138.0 L89.0,138.0 L88.0,138.0 L87.0,138.0 L86.0,138.0 L85.0,138.0 L84.0,138.0 L83.0,138.0 L82.0,138.0 L81.0,138.0 L80.0,138.0 L79.0,138.0 L78.0,138.0 L77.0,138.0 L76.0,138.0 L75.0,138.0 L74.0,138.0 L73.0,138.0 L72.0,138.0 L71.0,138.0 L70.0,138.0 L69.0,138.0 L68.0,138.0 L67.0,138.0 L66.0,138.0 L65.0,138.0 L64.0,138.0 L63.0,138.0 L62.0,138.0 L61.0,138.0 L60.0,138.0 L59.0,138.0 L58.0,138.0 L57.0,138.0 L56.0,137.0 L56.0,137.0 L55.0,137.0 L54.0,137.0 L53.0,136.0 L53.0,136.0 L52.0,136.0 L51.0,136.0 L50.0,135.0 L50.0,135.0 L49.0,135.0 L48.0,135.0 L47.0,134.0 L47.0,134.0 L46.0,134.0 L45.0,134.0 L44.0,134.0 L43.0,133.0 L43.0,133.0 L42.0,133.0 L41.0,133.0 L40.0,132.0 L40.0,132.0 L39.0,132.0 L38.0,132.0 L37.0,132.0 L36.0,131.0 L36.0,131.0 L35.0,131.0 L34.0,131.0 L33.0,130.0 L33.0,130.0 L32.0,130.0 L31.0,129.0 L31.0,128.0 L31.0,128.0 L30.0,127.0 L30.0,126.0 L30.0,125.0 L30.0,124.0 L30.0,123.0 L31.0,122.0 L31.0,122.0 L31.0,121.0 L31.0,120.0 L31.0,119.0 L31.0,118.0 L31.0,117.0 L32.0,116.0 L32.0,116.0 L32.0,115.0 L32.0,114.0 L32.0,113.0 L33.0,112.0 L33.0,112.0 L33.0,111.0 L33.0,110.0 L33.0,109.0 L33.0,108.0 L34.0,107.0 L34.0,107.0 L34.0,106.0 L34.0,105.0 L34.0,104.0 L34.0,103.0 L35.0,102.0 L35.0,102.0 L35.0,101.0 L35.0,100.0 L36.0,99.0 L37.0,99.0 L37.0,99.0 L38.0,98.0 L38.0,98.0 L39.0,97.0 L39.0,97.0 L40.0,96.0 L40.0,96.0 L41.0,95.0 L41.0,95.0 L42.0,94.0 L43.0,94.0 L43.0,94.0 L44.0,93.0 L44.0,93.0 L45.0,92.0 L45.0,92.0 L46.0,91.0 L46.0,91.0 L47.0,90.0 L47.0,90.0 L48.0,89.0 L48.0,89.0 L49.0,88.0 L49.0,88.0 L49.0,87.0 L50.0,86.0 L50.0,86.0 L50.0,85.0 L50.0,84.0 L51.0,83.0 L51.0,83.0 L51.0,82.0 L52.0,81.0 L52.0,81.0 L52.0,80.0 L52.0,79.0 L52.0,78.0 L53.0,77.0 L53.0,77.0 L53.0,76.0 L54.0,75.0 L54.0,75.0 L54.0,74.0 L54.0,73.0 L55.0,72.0 L55.0,72.0 L55.0,71.0 L56.0,70.0 L56.0,70.0 L56.0,69.0 L56.0,68.0 L57.0,67.0 L57.0,67.0 L57.0,66.0 L57.0,65.0 L58.0,64.0 L58.0,64.0 L58.0,63.0 L59.0,62.0 L59.0,62.0 L59.0,61.0 L59.0,60.0 L60.0,59.0 L60.0,59.0 L60.0,58.0 L61.0,57.0 L61.0,57.0 L61.0,56.0 L61.0,55.0 L62.0,54.0 L63.0,55.0 L63.0,55.0 L64.0,56.0 L64.0,56.0 L65.0,57.0 L65.0,57.0 L66.0,57.0 L66.0,57.0 L66.0,56.0 L67.0,55.0 L67.0,55.0 L67.0,54.0 L68.0,53.0 L68.0,53.0 L68.0,52.0 L69.0,51.0 L69.0,51.0 L69.0,50.0 L70.0,49.0 L70.0,49.0 L70.0,48.0 L71.0,47.0 L71.0,47.0 L71.0,46.0 L72.0,45.0 L72.0,45.0 L72.0,44.0 L73.0,43.0 L73.0,43.0 L74.0,42.0 L74.0,42.0 L75.0,41.0 L75.0,41.0 L76.0,40.0 L76.0,40.0 L76.0,39.0 L77.0,38.0 L77.0,38.0 L78.0,37.0 L78.0,37.0 L79.0,36.0 L79.0,36.0 L80.0,35.0 L80.0,35.0 L81.0,34.0 L81.0,34.0 L82.0,33.0 L82.0,33.0 L82.0,32.0 L83.0,31.0 L83.0,31.0 L84.0,30.0 L84.0,30.0 L85.0,29.0 L85.0,29.0 L86.0,28.0 L86.0,28.0 L87.0,27.0 L87.0,27.0 L88.0,26.0 L88.0,26.0 L89.0,25.0 Z M154.0,26.0 L154.0,26.0 L154.0,26.0 L154.0,26.0 L154.0,26.0 Z M24.0,27.0 L24.0,27.0 L24.0,27.0 L24.0,27.0 L24.0,27.0 Z M47.0,27.0 L47.0,27.0 L47.0,27.0 L47.0,27.0 L47.0,27.0 Z M155.0,27.0 L155.0,27.0 L155.0,27.0 L155.0,27.0 L155.0,27.0 Z M23.0,28.0 L23.0,28.0 L23.0,28.0 L23.0,28.0 L23.0,28.0 Z M137.0,27.0 L138.0,27.0 L139.0,27.0 L140.0,28.0 L140.0,28.0 L141.0,29.0 L141.0,29.0 L142.0,30.0 L142.0,30.0 L143.0,31.0 L143.0,31.0 L144.0,32.0 L144.0,32.0 L145.0,33.0 L145.0,34.0 L144.0,35.0 L143.0,35.0 L142.0,35.0 L141.0,34.0 L141.0,34.0 L141.0,34.0 L140.0,35.0 L140.0,35.0 L139.0,36.0 L139.0,36.0 L138.0,37.0 L138.0,37.0 L137.0,38.0 L137.0,38.0 L136.0,39.0 L135.0,39.0 L134.0,38.0 L134.0,38.0 L133.0,37.0 L133.0,36.0 L134.0,35.0 L134.0,35.0 L135.0,34.0 L135.0,34.0 L136.0,33.0 L136.0,33.0 L137.0,32.0 L137.0,32.0 L137.0,31.0 L137.0,30.0 L137.0,30.0 L136.0,29.0 L136.0,28.0 L137.0,27.0 Z M156.0,28.0 L156.0,28.0 L156.0,28.0 L156.0,28.0 L156.0,28.0 Z M22.0,29.0 L22.0,29.0 L22.0,29.0 L22.0,29.0 L22.0,29.0 Z M39.0,28.0 L40.0,28.0 L41.0,29.0 L41.0,29.0 L42.0,30.0 L42.0,31.0 L42.0,31.0 L43.0,32.0 L43.0,32.0 L44.0,33.0 L44.0,33.0 L45.0,34.0 L45.0,34.0 L46.0,35.0 L46.0,36.0 L46.0,37.0 L45.0,38.0 L44.0,38.0 L43.0,38.0 L42.0,37.0 L42.0,37.0 L41.0,36.0 L41.0,36.0 L40.0,35.0 L40.0,35.0 L39.0,34.0 L39.0,34.0 L38.0,33.0 L38.0,32.0 L38.0,32.0 L37.0,31.0 L37.0,30.0 L38.0,29.0 L38.0,29.0 L39.0,28.0 Z M21.0,30.0 L21.0,30.0 L21.0,30.0 L21.0,30.0 L21.0,30.0 Z M49.0,30.0 L49.0,30.0 L49.0,30.0 L49.0,30.0 L49.0,30.0 Z M88.0,30.0 L88.0,30.0 L87.0,31.0 L87.0,31.0 L86.0,32.0 L86.0,32.0 L85.0,33.0 L85.0,33.0 L85.0,34.0 L84.0,35.0 L84.0,35.0 L83.0,36.0 L83.0,36.0 L82.0,37.0 L82.0,37.0 L81.0,38.0 L81.0,38.0 L80.0,39.0 L80.0,39.0 L79.0,40.0 L79.0,40.0 L79.0,41.0 L78.0,42.0 L78.0,42.0 L77.0,43.0 L77.0,43.0 L76.0,44.0 L76.0,44.0 L75.0,45.0 L75.0,45.0 L75.0,46.0 L74.0,47.0 L74.0,47.0 L74.0,48.0 L73.0,49.0 L73.0,49.0 L73.0,50.0 L72.0,51.0 L72.0,51.0 L72.0,52.0 L71.0,53.0 L71.0,53.0 L71.0,54.0 L70.0,55.0 L70.0,55.0 L70.0,56.0 L69.0,57.0 L69.0,57.0 L69.0,58.0 L68.0,59.0 L68.0,59.0 L68.0,60.0 L67.0,61.0 L66.0,61.0 L65.0,61.0 L64.0,60.0 L64.0,60.0 L63.0,59.0 L63.0,59.0 L63.0,59.0 L63.0,60.0 L62.0,61.0 L62.0,61.0 L62.0,62.0 L62.0,63.0 L61.0,64.0 L61.0,64.0 L61.0,65.0 L60.0,66.0 L60.0,66.0 L60.0,67.0 L60.0,68.0 L59.0,69.0 L59.0,69.0 L59.0,70.0 L58.0,71.0 L58.0,71.0 L58.0,72.0 L58.0,73.0 L57.0,74.0 L57.0,74.0 L57.0,75.0 L57.0,76.0 L56.0,77.0 L56.0,77.0 L56.0,78.0 L56.0,79.0 L55.0,80.0 L55.0,80.0 L55.0,81.0 L54.0,82.0 L54.0,82.0 L54.0,83.0 L54.0,84.0 L53.0,85.0 L53.0,85.0 L53.0,86.0 L53.0,87.0 L52.0,88.0 L52.0,88.0 L52.0,89.0 L51.0,90.0 L51.0,90.0 L51.0,91.0 L50.0,92.0 L49.0,92.0 L49.0,92.0 L48.0,93.0 L48.0,93.0 L47.0,94.0 L47.0,94.0 L46.0,95.0 L46.0,95.0 L45.0,96.0 L44.0,96.0 L44.0,96.0 L43.0,97.0 L43.0,97.0 L42.0,98.0 L42.0,98.0 L41.0,99.0 L41.0,99.0 L40.0,100.0 L40.0,100.0 L39.0,101.0 L39.0,101.0 L38.0,102.0 L38.0,102.0 L38.0,103.0 L37.0,104.0 L37.0,104.0 L37.0,105.0 L37.0,106.0 L37.0,107.0 L37.0,108.0 L36.0,109.0 L36.0,109.0 L36.0,110.0 L36.0,111.0 L36.0,112.0 L36.0,113.0 L35.0,114.0 L35.0,114.0 L35.0,115.0 L35.0,116.0 L35.0,117.0 L34.0,118.0 L34.0,118.0 L34.0,119.0 L34.0,120.0 L34.0,121.0 L34.0,122.0 L34.0,123.0 L33.0,124.0 L33.0,124.0 L33.0,125.0 L33.0,126.0 L33.0,126.0 L34.0,127.0 L34.0,127.0 L35.0,128.0 L35.0,128.0 L36.0,128.0 L37.0,128.0 L38.0,129.0 L38.0,129.0 L39.0,129.0 L40.0,129.0 L41.0,130.0 L41.0,130.0 L42.0,130.0 L43.0,130.0 L44.0,130.0 L45.0,131.0 L45.0,131.0 L46.0,131.0 L47.0,131.0 L48.0,132.0 L48.0,132.0 L49.0,132.0 L50.0,132.0 L51.0,133.0 L51.0,133.0 L52.0,133.0 L53.0,133.0 L54.0,133.0 L55.0,134.0 L55.0,134.0 L56.0,134.0 L57.0,134.0 L58.0,135.0 L58.0,135.0 L59.0,135.0 L60.0,135.0 L61.0,135.0 L62.0,135.0 L63.0,135.0 L64.0,135.0 L65.0,135.0 L66.0,135.0 L67.0,135.0 L68.0,135.0 L69.0,135.0 L70.0,135.0 L71.0,135.0 L72.0,135.0 L73.0,135.0 L74.0,135.0 L75.0,135.0 L76.0,135.0 L77.0,135.0 L78.0,135.0 L79.0,135.0 L80.0,135.0 L81.0,135.0 L82.0,135.0 L83.0,135.0 L84.0,135.0 L85.0,135.0 L86.0,135.0 L87.0,135.0 L88.0,135.0 L89.0,135.0 L90.0,135.0 L91.0,135.0 L92.0,135.0 L93.0,135.0 L94.0,135.0 L95.0,135.0 L96.0,135.0 L97.0,135.0 L98.0,135.0 L99.0,135.0 L100.0,135.0 L101.0,135.0 L102.0,135.0 L103.0,135.0 L104.0,135.0 L105.0,135.0 L106.0,135.0 L107.0,135.0 L108.0,135.0 L109.0,135.0 L110.0,135.0 L111.0,135.0 L112.0,135.0 L113.0,135.0 L114.0,135.0 L115.0,135.0 L116.0,135.0 L117.0,135.0 L118.0,135.0 L119.0,135.0 L120.0,135.0 L121.0,135.0 L122.0,135.0 L123.0,135.0 L123.0,135.0 L124.0,134.0 L125.0,134.0 L126.0,134.0 L126.0,134.0 L127.0,133.0 L128.0,133.0 L129.0,133.0 L129.0,133.0 L130.0,132.0 L131.0,132.0 L131.0,132.0 L132.0,131.0 L133.0,131.0 L134.0,131.0 L134.0,131.0 L135.0,130.0 L136.0,130.0 L137.0,130.0 L137.0,130.0 L138.0,129.0 L139.0,129.0 L140.0,129.0 L140.0,129.0 L141.0,128.0 L142.0,128.0 L143.0,128.0 L143.0,128.0 L144.0,127.0 L145.0,127.0 L145.0,127.0 L146.0,126.0 L146.0,126.0 L146.0,125.0 L146.0,124.0 L146.0,124.0 L145.0,123.0 L145.0,122.0 L145.0,121.0 L145.0,120.0 L145.0,119.0 L145.0,118.0 L145.0,118.0 L144.0,117.0 L144.0,116.0 L144.0,115.0 L144.0,115.0 L143.0,114.0 L143.0,113.0 L143.0,113.0 L142.0,112.0 L142.0,111.0 L142.0,111.0 L141.0,110.0 L141.0,109.0 L141.0,109.0 L140.0,108.0 L140.0,107.0 L140.0,107.0 L139.0,106.0 L139.0,105.0 L139.0,105.0 L138.0,104.0 L138.0,103.0 L138.0,103.0 L137.0,102.0 L137.0,101.0 L137.0,101.0 L136.0,100.0 L136.0,99.0 L136.0,99.0 L135.0,98.0 L135.0,97.0 L135.0,96.0 L135.0,96.0 L134.0,95.0 L134.0,94.0 L134.0,93.0 L134.0,92.0 L134.0,91.0 L134.0,91.0 L133.0,90.0 L133.0,89.0 L133.0,88.0 L133.0,87.0 L133.0,86.0 L133.0,85.0 L133.0,85.0 L132.0,84.0 L132.0,83.0 L132.0,82.0 L132.0,81.0 L132.0,80.0 L132.0,80.0 L131.0,79.0 L131.0,78.0 L131.0,77.0 L131.0,76.0 L131.0,75.0 L131.0,75.0 L130.0,74.0 L130.0,73.0 L130.0,72.0 L130.0,71.0 L130.0,70.0 L130.0,70.0 L129.0,69.0 L129.0,69.0 L129.0,69.0 L128.0,70.0 L127.0,70.0 L126.0,70.0 L125.0,70.0 L124.0,70.0 L123.0,69.0 L123.0,69.0 L122.0,68.0 L122.0,67.0 L122.0,66.0 L122.0,66.0 L121.0,65.0 L121.0,64.0 L121.0,63.0 L121.0,62.0 L121.0,62.0 L120.0,61.0 L120.0,60.0 L120.0,59.0 L120.0,59.0 L119.0,58.0 L119.0,57.0 L119.0,56.0 L119.0,56.0 L118.0,55.0 L118.0,54.0 L118.0,53.0 L118.0,53.0 L117.0,52.0 L117.0,51.0 L117.0,51.0 L116.0,51.0 L115.0,51.0 L114.0,51.0 L113.0,51.0 L112.0,51.0 L111.0,51.0 L110.0,51.0 L109.0,51.0 L108.0,51.0 L107.0,51.0 L106.0,50.0 L106.0,50.0 L105.0,50.0 L104.0,50.0 L103.0,50.0 L102.0,49.0 L102.0,48.0 L102.0,48.0 L101.0,47.0 L101.0,47.0 L100.0,46.0 L100.0,46.0 L99.0,45.0 L99.0,44.0 L99.0,44.0 L98.0,43.0 L98.0,43.0 L97.0,42.0 L97.0,41.0 L97.0,41.0 L96.0,40.0 L96.0,40.0 L95.0,39.0 L95.0,38.0 L95.0,38.0 L94.0,37.0 L94.0,37.0 L93.0,36.0 L93.0,35.0 L93.0,35.0 L92.0,34.0 L92.0,34.0 L91.0,33.0 L91.0,32.0 L91.0,32.0 L90.0,31.0 L90.0,31.0 L89.0,30.0 L89.0,30.0 L88.0,30.0 Z M158.0,30.0 L158.0,30.0 L158.0,31.0 L158.0,31.0 L159.0,31.0 L159.0,31.0 L159.0,31.0 L158.0,30.0 L158.0,30.0 Z M19.0,33.0 L19.0,33.0 L19.0,33.0 L19.0,33.0 L19.0,33.0 Z M35.0,32.0 L36.0,32.0 L37.0,33.0 L37.0,34.0 L37.0,35.0 L37.0,36.0 L36.0,37.0 L35.0,37.0 L35.0,37.0 L35.0,38.0 L35.0,39.0 L35.0,40.0 L35.0,40.0 L36.0,40.0 L37.0,40.0 L37.0,40.0 L38.0,39.0 L38.0,39.0 L38.0,38.0 L39.0,37.0 L40.0,37.0 L41.0,37.0 L42.0,38.0 L42.0,39.0 L42.0,40.0 L41.0,41.0 L41.0,41.0 L41.0,42.0 L40.0,43.0 L40.0,43.0 L39.0,44.0 L38.0,44.0 L37.0,44.0 L36.0,44.0 L35.0,44.0 L34.0,44.0 L33.0,44.0 L33.0,44.0 L33.0,44.0 L34.0,45.0 L34.0,46.0 L34.0,47.0 L34.0,48.0 L34.0,49.0 L34.0,50.0 L33.0,51.0 L33.0,51.0 L32.0,52.0 L32.0,52.0 L31.0,53.0 L31.0,53.0 L30.0,54.0 L29.0,54.0 L28.0,54.0 L27.0,54.0 L26.0,54.0 L25.0,53.0 L25.0,53.0 L24.0,52.0 L24.0,52.0 L23.0,51.0 L23.0,51.0 L22.0,50.0 L22.0,49.0 L22.0,48.0 L22.0,47.0 L23.0,46.0 L23.0,46.0 L23.0,45.0 L24.0,44.0 L24.0,44.0 L25.0,43.0 L26.0,43.0 L26.0,43.0 L27.0,42.0 L28.0,42.0 L29.0,42.0 L30.0,42.0 L31.0,42.0 L31.0,42.0 L31.0,41.0 L31.0,41.0 L30.0,40.0 L30.0,39.0 L30.0,38.0 L30.0,37.0 L31.0,36.0 L31.0,36.0 L31.0,35.0 L32.0,34.0 L32.0,34.0 L33.0,33.0 L34.0,33.0 L34.0,33.0 L35.0,32.0 Z M160.0,33.0 L160.0,33.0 L160.0,33.0 L160.0,33.0 L160.0,33.0 Z M18.0,34.0 L18.0,34.0 L18.0,34.0 L18.0,34.0 L18.0,34.0 Z M88.0,33.0 L89.0,34.0 L89.0,34.0 L90.0,35.0 L90.0,35.0 L91.0,36.0 L91.0,37.0 L91.0,37.0 L92.0,38.0 L92.0,38.0 L93.0,39.0 L93.0,39.0 L94.0,40.0 L94.0,41.0 L94.0,41.0 L95.0,42.0 L95.0,42.0 L96.0,43.0 L96.0,44.0 L96.0,44.0 L97.0,45.0 L97.0,45.0 L98.0,46.0 L98.0,47.0 L98.0,47.0 L99.0,48.0 L99.0,48.0 L100.0,49.0 L100.0,50.0 L100.0,50.0 L101.0,51.0 L100.0,52.0 L100.0,52.0 L100.0,52.0 L101.0,52.0 L102.0,52.0 L103.0,52.0 L104.0,52.0 L105.0,52.0 L106.0,52.0 L107.0,52.0 L108.0,52.0 L109.0,53.0 L109.0,53.0 L110.0,53.0 L111.0,53.0 L112.0,53.0 L113.0,53.0 L114.0,53.0 L115.0,53.0 L116.0,54.0 L116.0,55.0 L116.0,55.0 L117.0,56.0 L117.0,57.0 L117.0,58.0 L117.0,59.0 L117.0,59.0 L118.0,60.0 L118.0,61.0 L118.0,62.0 L118.0,62.0 L119.0,63.0 L119.0,64.0 L119.0,65.0 L119.0,65.0 L120.0,66.0 L120.0,67.0 L120.0,68.0 L120.0,68.0 L121.0,69.0 L121.0,70.0 L121.0,71.0 L121.0,72.0 L121.0,73.0 L121.0,73.0 L122.0,73.0 L122.0,73.0 L123.0,72.0 L124.0,72.0 L125.0,72.0 L126.0,72.0 L127.0,72.0 L128.0,73.0 L128.0,73.0 L129.0,74.0 L129.0,75.0 L129.0,76.0 L129.0,77.0 L129.0,78.0 L129.0,79.0 L129.0,79.0 L130.0,80.0 L130.0,81.0 L130.0,82.0 L130.0,83.0 L130.0,84.0 L130.0,84.0 L131.0,85.0 L131.0,86.0 L131.0,87.0 L131.0,88.0 L131.0,89.0 L131.0,90.0 L131.0,90.0 L132.0,91.0 L132.0,92.0 L132.0,93.0 L132.0,94.0 L132.0,95.0 L132.0,96.0 L132.0,97.0 L132.0,97.0 L133.0,98.0 L133.0,98.0 L134.0,99.0 L134.0,100.0 L134.0,100.0 L135.0,101.0 L135.0,102.0 L135.0,102.0 L136.0,103.0 L136.0,104.0 L136.0,105.0 L136.0,105.0 L137.0,106.0 L137.0,106.0 L138.0,107.0 L138.0,108.0 L138.0,109.0 L138.0,109.0 L139.0,110.0 L139.0,111.0 L139.0,111.0 L140.0,112.0 L140.0,113.0 L140.0,113.0 L141.0,114.0 L141.0,115.0 L140.0,116.0 L140.0,116.0 L140.0,116.0 L141.0,117.0 L141.0,117.0 L142.0,117.0 L143.0,118.0 L143.0,119.0 L143.0,120.0 L143.0,121.0 L143.0,122.0 L143.0,122.0 L144.0,123.0 L144.0,124.0 L143.0,125.0 L143.0,125.0 L142.0,126.0 L141.0,126.0 L141.0,126.0 L140.0,127.0 L139.0,127.0 L138.0,127.0 L138.0,127.0 L137.0,128.0 L136.0,128.0 L136.0,128.0 L135.0,129.0 L134.0,129.0 L133.0,129.0 L132.0,129.0 L132.0,129.0 L131.0,130.0 L130.0,130.0 L130.0,130.0 L129.0,131.0 L128.0,131.0 L127.0,131.0 L127.0,131.0 L126.0,132.0 L125.0,132.0 L124.0,132.0 L123.0,132.0 L123.0,132.0 L122.0,133.0 L121.0,133.0 L120.0,133.0 L119.0,133.0 L118.0,133.0 L117.0,133.0 L116.0,133.0 L115.0,133.0 L114.0,133.0 L113.0,133.0 L112.0,133.0 L111.0,133.0 L110.0,133.0 L109.0,133.0 L108.0,133.0 L107.0,133.0 L106.0,133.0 L105.0,133.0 L104.0,133.0 L103.0,133.0 L102.0,133.0 L101.0,133.0 L100.0,133.0 L99.0,133.0 L98.0,133.0 L97.0,133.0 L96.0,133.0 L95.0,133.0 L94.0,133.0 L93.0,133.0 L92.0,133.0 L91.0,133.0 L90.0,133.0 L89.0,133.0 L88.0,133.0 L87.0,133.0 L86.0,133.0 L85.0,133.0 L84.0,132.0 L84.0,132.0 L83.0,132.0 L83.0,132.0 L82.0,133.0 L81.0,133.0 L80.0,133.0 L79.0,133.0 L78.0,133.0 L77.0,133.0 L76.0,133.0 L75.0,133.0 L74.0,133.0 L73.0,133.0 L72.0,133.0 L71.0,133.0 L70.0,133.0 L69.0,133.0 L68.0,133.0 L67.0,133.0 L66.0,133.0 L65.0,133.0 L64.0,133.0 L63.0,133.0 L62.0,133.0 L61.0,133.0 L60.0,133.0 L59.0,133.0 L58.0,132.0 L58.0,132.0 L57.0,132.0 L56.0,132.0 L55.0,132.0 L54.0,131.0 L54.0,131.0 L53.0,131.0 L52.0,131.0 L51.0,130.0 L51.0,130.0 L50.0,130.0 L49.0,130.0 L48.0,129.0 L48.0,129.0 L47.0,129.0 L46.0,129.0 L45.0,129.0 L44.0,128.0 L44.0,128.0 L43.0,128.0 L42.0,128.0 L41.0,127.0 L41.0,127.0 L40.0,127.0 L39.0,127.0 L38.0,127.0 L37.0,126.0 L37.0,126.0 L36.0,125.0 L36.0,124.0 L36.0,123.0 L36.0,122.0 L36.0,121.0 L36.0,120.0 L36.0,119.0 L37.0,118.0 L37.0,118.0 L37.0,117.0 L37.0,116.0 L37.0,115.0 L37.0,114.0 L38.0,113.0 L38.0,113.0 L38.0,112.0 L38.0,111.0 L38.0,110.0 L38.0,109.0 L39.0,108.0 L39.0,108.0 L39.0,107.0 L39.0,106.0 L39.0,105.0 L39.0,104.0 L40.0,103.0 L40.0,103.0 L41.0,102.0 L41.0,102.0 L42.0,101.0 L42.0,101.0 L43.0,100.0 L43.0,100.0 L44.0,99.0 L45.0,99.0 L45.0,99.0 L46.0,98.0 L46.0,98.0 L47.0,97.0 L47.0,97.0 L48.0,96.0 L48.0,96.0 L49.0,95.0 L50.0,95.0 L50.0,95.0 L51.0,94.0 L51.0,94.0 L52.0,93.0 L52.0,93.0 L53.0,92.0 L53.0,92.0 L53.0,91.0 L54.0,90.0 L54.0,90.0 L55.0,89.0 L55.0,89.0 L55.0,88.0 L55.0,87.0 L56.0,86.0 L56.0,86.0 L56.0,86.0 L55.0,85.0 L56.0,84.0 L56.0,84.0 L56.0,83.0 L57.0,82.0 L57.0,82.0 L57.0,81.0 L57.0,80.0 L58.0,79.0 L58.0,79.0 L58.0,78.0 L58.0,77.0 L59.0,76.0 L59.0,76.0 L59.0,75.0 L60.0,74.0 L60.0,74.0 L60.0,73.0 L60.0,72.0 L61.0,71.0 L61.0,71.0 L61.0,70.0 L62.0,69.0 L62.0,69.0 L62.0,68.0 L62.0,67.0 L63.0,66.0 L63.0,66.0 L63.0,65.0 L63.0,64.0 L64.0,63.0 L65.0,63.0 L66.0,64.0 L66.0,64.0 L67.0,65.0 L67.0,66.0 L67.0,67.0 L67.0,67.0 L68.0,67.0 L68.0,67.0 L68.0,66.0 L68.0,65.0 L68.0,64.0 L69.0,63.0 L69.0,63.0 L69.0,62.0 L70.0,61.0 L70.0,61.0 L70.0,60.0 L71.0,59.0 L71.0,59.0 L71.0,58.0 L72.0,57.0 L72.0,57.0 L72.0,56.0 L73.0,55.0 L73.0,55.0 L73.0,54.0 L74.0,53.0 L74.0,53.0 L74.0,52.0 L75.0,51.0 L75.0,51.0 L75.0,50.0 L76.0,49.0 L76.0,49.0 L77.0,48.0 L77.0,48.0 L77.0,47.0 L78.0,46.0 L78.0,46.0 L78.0,45.0 L79.0,44.0 L79.0,44.0 L80.0,43.0 L80.0,43.0 L81.0,42.0 L81.0,42.0 L81.0,41.0 L82.0,40.0 L82.0,40.0 L83.0,39.0 L83.0,39.0 L84.0,38.0 L84.0,38.0 L85.0,37.0 L85.0,37.0 L86.0,36.0 L86.0,36.0 L86.0,35.0 L87.0,34.0 L87.0,34.0 L88.0,33.0 Z M161.0,34.0 L161.0,34.0 L161.0,34.0 L161.0,34.0 L161.0,34.0 Z M16.0,37.0 L16.0,37.0 L16.0,37.0 L16.0,37.0 L16.0,37.0 Z M163.0,37.0 L163.0,37.0 L163.0,37.0 L163.0,37.0 L163.0,37.0 Z M15.0,38.0 L15.0,38.0 L15.0,38.0 L15.0,38.0 L15.0,38.0 Z M164.0,38.0 L164.0,38.0 L164.0,38.0 L164.0,38.0 L164.0,38.0 Z M14.0,39.0 L14.0,39.0 L14.0,39.0 L14.0,39.0 L14.0,39.0 Z M165.0,39.0 L165.0,39.0 L165.0,39.0 L165.0,39.0 L165.0,39.0 Z M13.0,41.0 L13.0,41.0 L13.0,41.0 L13.0,41.0 L13.0,41.0 Z M166.0,41.0 L166.0,41.0 L166.0,41.0 L166.0,41.0 L166.0,41.0 Z M152.0,41.0 L153.0,42.0 L153.0,42.0 L154.0,43.0 L154.0,43.0 L155.0,44.0 L155.0,45.0 L155.0,45.0 L156.0,46.0 L156.0,46.0 L157.0,47.0 L157.0,48.0 L157.0,49.0 L156.0,50.0 L155.0,50.0 L154.0,49.0 L154.0,49.0 L153.0,48.0 L153.0,48.0 L153.0,48.0 L153.0,49.0 L153.0,49.0 L154.0,50.0 L153.0,51.0 L153.0,51.0 L152.0,52.0 L151.0,51.0 L151.0,51.0 L150.0,50.0 L150.0,50.0 L150.0,50.0 L150.0,51.0 L150.0,51.0 L151.0,52.0 L151.0,53.0 L150.0,54.0 L150.0,54.0 L149.0,55.0 L148.0,54.0 L148.0,54.0 L147.0,53.0 L147.0,52.0 L147.0,52.0 L146.0,51.0 L146.0,51.0 L145.0,50.0 L145.0,50.0 L144.0,49.0 L144.0,48.0 L144.0,47.0 L145.0,46.0 L145.0,46.0 L146.0,45.0 L147.0,45.0 L147.0,45.0 L148.0,44.0 L148.0,44.0 L149.0,43.0 L150.0,43.0 L150.0,43.0 L151.0,42.0 L151.0,42.0 L152.0,41.0 Z M32.0,43.0 L32.0,43.0 L32.0,43.0 L32.0,43.0 L32.0,43.0 Z M11.0,45.0 L11.0,45.0 L11.0,45.0 L11.0,45.0 L11.0,45.0 Z M168.0,45.0 L168.0,45.0 L168.0,45.0 L168.0,45.0 L168.0,45.0 Z M28.0,46.0 L28.0,46.0 L27.0,47.0 L27.0,47.0 L27.0,48.0 L27.0,49.0 L27.0,49.0 L28.0,50.0 L28.0,50.0 L29.0,50.0 L29.0,50.0 L30.0,49.0 L30.0,49.0 L30.0,48.0 L30.0,47.0 L30.0,47.0 L29.0,47.0 L28.0,46.0 L28.0,46.0 Z M80.0,47.0 L80.0,47.0 L80.0,47.0 L81.0,47.0 L81.0,47.0 L81.0,47.0 L80.0,47.0 Z M152.0,47.0 L152.0,47.0 L152.0,47.0 L152.0,47.0 L152.0,47.0 Z M9.0,49.0 L9.0,49.0 L9.0,49.0 L9.0,49.0 L9.0,49.0 Z M89.0,49.0 L89.0,49.0 L89.0,49.0 L90.0,49.0 L90.0,49.0 L90.0,49.0 L89.0,49.0 Z M149.0,49.0 L149.0,49.0 L149.0,49.0 L149.0,49.0 L149.0,49.0 Z M170.0,49.0 L170.0,49.0 L170.0,49.0 L170.0,49.0 L170.0,49.0 Z M8.0,50.0 L8.0,50.0 L8.0,50.0 L8.0,50.0 L8.0,50.0 Z M92.0,50.0 L92.0,50.0 L92.0,50.0 L92.0,50.0 L92.0,50.0 Z M171.0,50.0 L171.0,50.0 L171.0,50.0 L171.0,50.0 L171.0,50.0 Z M98.0,51.0 L98.0,51.0 L98.0,51.0 L98.0,51.0 L98.0,51.0 Z M157.0,50.0 L158.0,50.0 L159.0,51.0 L159.0,51.0 L160.0,52.0 L160.0,53.0 L160.0,54.0 L159.0,55.0 L158.0,55.0 L158.0,55.0 L157.0,56.0 L156.0,56.0 L156.0,56.0 L155.0,57.0 L154.0,57.0 L154.0,57.0 L154.0,58.0 L154.0,58.0 L155.0,58.0 L156.0,58.0 L157.0,58.0 L157.0,58.0 L158.0,57.0 L159.0,57.0 L159.0,57.0 L160.0,56.0 L161.0,56.0 L162.0,57.0 L162.0,57.0 L163.0,58.0 L163.0,59.0 L162.0,60.0 L162.0,60.0 L161.0,61.0 L160.0,61.0 L160.0,61.0 L159.0,62.0 L158.0,62.0 L158.0,62.0 L157.0,63.0 L156.0,63.0 L155.0,63.0 L154.0,63.0 L153.0,62.0 L153.0,62.0 L152.0,61.0 L152.0,61.0 L151.0,60.0 L151.0,60.0 L150.0,59.0 L150.0,58.0 L150.0,57.0 L150.0,56.0 L150.0,55.0 L151.0,54.0 L151.0,54.0 L152.0,53.0 L152.0,53.0 L153.0,52.0 L154.0,52.0 L155.0,52.0 L155.0,52.0 L156.0,51.0 L156.0,51.0 L157.0,50.0 Z M7.0,52.0 L7.0,52.0 L7.0,53.0 L7.0,53.0 L7.0,53.0 L7.0,52.0 L7.0,52.0 Z M172.0,52.0 L172.0,52.0 L172.0,52.0 L172.0,52.0 L172.0,52.0 Z M20.0,52.0 L21.0,52.0 L22.0,53.0 L22.0,53.0 L23.0,54.0 L22.0,55.0 L22.0,55.0 L21.0,56.0 L21.0,56.0 L21.0,57.0 L21.0,57.0 L21.0,57.0 L22.0,56.0 L22.0,56.0 L23.0,55.0 L23.0,55.0 L24.0,54.0 L25.0,54.0 L26.0,54.0 L27.0,54.0 L28.0,55.0 L28.0,56.0 L28.0,56.0 L29.0,57.0 L29.0,58.0 L28.0,59.0 L28.0,59.0 L28.0,60.0 L28.0,61.0 L27.0,62.0 L27.0,62.0 L26.0,63.0 L26.0,63.0 L25.0,64.0 L24.0,64.0 L23.0,63.0 L23.0,62.0 L23.0,61.0 L24.0,60.0 L24.0,60.0 L24.0,59.0 L24.0,59.0 L24.0,59.0 L23.0,60.0 L23.0,60.0 L22.0,61.0 L22.0,61.0 L21.0,62.0 L20.0,62.0 L19.0,61.0 L19.0,61.0 L18.0,61.0 L17.0,60.0 L17.0,59.0 L17.0,58.0 L17.0,57.0 L17.0,56.0 L18.0,55.0 L18.0,55.0 L18.0,54.0 L19.0,53.0 L19.0,53.0 L20.0,52.0 Z M76.0,55.0 L76.0,55.0 L76.0,56.0 L76.0,57.0 L76.0,57.0 L76.0,57.0 L76.0,56.0 L76.0,55.0 L76.0,55.0 Z M4.0,60.0 L4.0,60.0 L4.0,60.0 L4.0,60.0 L4.0,60.0 Z M75.0,60.0 L75.0,60.0 L75.0,61.0 L75.0,62.0 L75.0,63.0 L75.0,63.0 L75.0,63.0 L75.0,62.0 L75.0,61.0 L75.0,60.0 L75.0,60.0 Z M175.0,60.0 L175.0,60.0 L175.0,60.0 L175.0,60.0 L175.0,60.0 Z M3.0,62.0 L3.0,62.0 L3.0,63.0 L3.0,63.0 L3.0,63.0 L3.0,62.0 L3.0,62.0 Z M163.0,61.0 L164.0,62.0 L164.0,62.0 L165.0,63.0 L165.0,64.0 L165.0,65.0 L165.0,66.0 L165.0,66.0 L166.0,67.0 L166.0,68.0 L166.0,69.0 L165.0,70.0 L165.0,70.0 L165.0,71.0 L164.0,72.0 L163.0,72.0 L163.0,72.0 L162.0,73.0 L161.0,73.0 L160.0,72.0 L160.0,72.0 L159.0,72.0 L159.0,72.0 L158.0,73.0 L158.0,73.0 L157.0,74.0 L156.0,73.0 L156.0,72.0 L156.0,72.0 L155.0,71.0 L156.0,70.0 L156.0,70.0 L156.0,69.0 L157.0,68.0 L157.0,68.0 L157.0,68.0 L156.0,68.0 L155.0,68.0 L154.0,67.0 L154.0,66.0 L154.0,65.0 L155.0,64.0 L156.0,64.0 L156.0,64.0 L157.0,63.0 L158.0,63.0 L159.0,63.0 L159.0,63.0 L160.0,62.0 L161.0,62.0 L162.0,62.0 L162.0,62.0 L163.0,61.0 Z M176.0,62.0 L176.0,62.0 L176.0,63.0 L176.0,63.0 L176.0,63.0 L176.0,62.0 L176.0,62.0 Z M2.0,65.0 L2.0,65.0 L2.0,65.0 L2.0,65.0 L2.0,65.0 Z M177.0,65.0 L177.0,65.0 L177.0,65.0 L177.0,65.0 L177.0,65.0 Z M15.0,65.0 L16.0,66.0 L16.0,66.0 L17.0,67.0 L17.0,68.0 L17.0,68.0 L17.0,68.0 L18.0,67.0 L19.0,67.0 L20.0,68.0 L20.0,69.0 L20.0,70.0 L20.0,71.0 L20.0,71.0 L20.0,71.0 L20.0,70.0 L20.0,69.0 L21.0,68.0 L21.0,68.0 L22.0,67.0 L23.0,67.0 L24.0,68.0 L24.0,69.0 L24.0,70.0 L24.0,71.0 L23.0,72.0 L23.0,72.0 L23.0,73.0 L23.0,74.0 L23.0,75.0 L22.0,76.0 L22.0,76.0 L22.0,77.0 L22.0,78.0 L22.0,79.0 L22.0,80.0 L22.0,81.0 L22.0,82.0 L21.0,83.0 L21.0,83.0 L21.0,84.0 L21.0,85.0 L20.0,86.0 L19.0,86.0 L18.0,86.0 L17.0,86.0 L16.0,86.0 L15.0,85.0 L15.0,85.0 L14.0,85.0 L13.0,85.0 L12.0,85.0 L11.0,85.0 L10.0,84.0 L10.0,83.0 L10.0,82.0 L10.0,81.0 L10.0,80.0 L11.0,79.0 L11.0,79.0 L11.0,78.0 L11.0,77.0 L12.0,76.0 L13.0,76.0 L14.0,76.0 L15.0,77.0 L15.0,77.0 L16.0,77.0 L17.0,77.0 L18.0,78.0 L18.0,79.0 L18.0,80.0 L18.0,81.0 L18.0,81.0 L18.0,81.0 L18.0,80.0 L18.0,79.0 L18.0,78.0 L19.0,77.0 L19.0,77.0 L20.0,76.0 L20.0,76.0 L20.0,76.0 L19.0,76.0 L18.0,76.0 L17.0,76.0 L16.0,75.0 L16.0,75.0 L15.0,75.0 L14.0,75.0 L13.0,75.0 L12.0,74.0 L12.0,73.0 L12.0,72.0 L12.0,71.0 L12.0,70.0 L13.0,69.0 L13.0,69.0 L13.0,68.0 L13.0,67.0 L14.0,66.0 L14.0,66.0 L15.0,65.0 Z M2.0,67.0 L2.0,67.0 L2.0,68.0 L2.0,68.0 L2.0,68.0 L2.0,67.0 L2.0,67.0 Z M161.0,67.0 L161.0,67.0 L161.0,68.0 L161.0,68.0 L162.0,68.0 L162.0,68.0 L162.0,67.0 L162.0,67.0 L161.0,67.0 Z M177.0,67.0 L177.0,67.0 L177.0,68.0 L177.0,68.0 L177.0,68.0 L177.0,67.0 L177.0,67.0 Z M16.0,69.0 L16.0,69.0 L16.0,70.0 L16.0,71.0 L16.0,71.0 L16.0,71.0 L16.0,70.0 L16.0,69.0 L16.0,69.0 Z M66.0,69.0 L66.0,69.0 L66.0,69.0 L66.0,69.0 L66.0,69.0 Z M98.0,69.0 L98.0,69.0 L97.0,70.0 L97.0,70.0 L97.0,70.0 L98.0,71.0 L98.0,71.0 L98.0,71.0 L98.0,70.0 L98.0,69.0 L98.0,69.0 Z M1.0,71.0 L1.0,71.0 L1.0,71.0 L1.0,71.0 L1.0,71.0 Z M95.0,71.0 L95.0,71.0 L95.0,71.0 L95.0,71.0 L95.0,71.0 Z M178.0,71.0 L178.0,71.0 L178.0,71.0 L178.0,71.0 L178.0,71.0 Z M64.0,72.0 L64.0,72.0 L64.0,72.0 L64.0,72.0 L64.0,72.0 Z M70.0,72.0 L70.0,72.0 L70.0,72.0 L70.0,72.0 L70.0,72.0 Z M71.0,73.0 L71.0,73.0 L71.0,74.0 L71.0,74.0 L71.0,74.0 L71.0,73.0 L71.0,73.0 Z M88.0,73.0 L88.0,73.0 L88.0,73.0 L89.0,73.0 L89.0,73.0 L89.0,73.0 L88.0,73.0 Z M63.0,74.0 L63.0,74.0 L63.0,74.0 L63.0,74.0 L63.0,74.0 Z M160.0,73.0 L161.0,73.0 L162.0,73.0 L163.0,73.0 L164.0,73.0 L165.0,73.0 L166.0,74.0 L166.0,74.0 L167.0,75.0 L167.0,75.0 L168.0,76.0 L168.0,77.0 L168.0,78.0 L168.0,78.0 L169.0,79.0 L169.0,80.0 L168.0,81.0 L168.0,81.0 L168.0,82.0 L167.0,83.0 L167.0,83.0 L166.0,84.0 L166.0,84.0 L165.0,85.0 L164.0,85.0 L163.0,85.0 L162.0,85.0 L161.0,85.0 L160.0,85.0 L159.0,84.0 L159.0,84.0 L158.0,83.0 L158.0,82.0 L158.0,82.0 L157.0,81.0 L157.0,80.0 L157.0,79.0 L157.0,78.0 L157.0,77.0 L158.0,76.0 L158.0,76.0 L158.0,75.0 L159.0,74.0 L159.0,74.0 L160.0,73.0 Z M82.0,75.0 L82.0,75.0 L82.0,75.0 L82.0,75.0 L82.0,75.0 Z M73.0,76.0 L73.0,76.0 L72.0,77.0 L72.0,77.0 L72.0,78.0 L72.0,78.0 L73.0,79.0 L73.0,79.0 L74.0,80.0 L74.0,80.0 L74.0,80.0 L74.0,79.0 L74.0,78.0 L75.0,77.0 L75.0,77.0 L75.0,77.0 L74.0,77.0 L73.0,76.0 L73.0,76.0 Z M99.0,76.0 L99.0,76.0 L99.0,77.0 L99.0,78.0 L99.0,79.0 L99.0,80.0 L99.0,80.0 L99.0,80.0 L99.0,79.0 L99.0,78.0 L99.0,77.0 L99.0,76.0 L99.0,76.0 Z M61.0,78.0 L61.0,78.0 L61.0,78.0 L61.0,78.0 L61.0,78.0 Z M161.0,78.0 L161.0,78.0 L161.0,79.0 L161.0,80.0 L161.0,80.0 L162.0,81.0 L162.0,81.0 L163.0,81.0 L163.0,81.0 L164.0,80.0 L164.0,80.0 L164.0,79.0 L164.0,78.0 L164.0,78.0 L163.0,78.0 L162.0,78.0 L161.0,78.0 Z M14.0,79.0 L14.0,79.0 L14.0,80.0 L14.0,81.0 L14.0,81.0 L14.0,81.0 L14.0,80.0 L14.0,79.0 L14.0,79.0 Z M59.0,81.0 L59.0,81.0 L59.0,81.0 L59.0,81.0 L59.0,81.0 Z M75.0,81.0 L75.0,81.0 L75.0,81.0 L75.0,81.0 L75.0,81.0 Z M80.0,82.0 L80.0,82.0 L80.0,82.0 L80.0,82.0 L80.0,82.0 Z M57.0,85.0 L57.0,85.0 L57.0,85.0 L57.0,85.0 L57.0,85.0 Z M85.0,85.0 L85.0,85.0 L85.0,85.0 L85.0,85.0 L85.0,85.0 Z M78.0,86.0 L78.0,86.0 L78.0,86.0 L78.0,86.0 L78.0,86.0 Z M13.0,86.0 L14.0,86.0 L15.0,86.0 L16.0,86.0 L17.0,87.0 L17.0,87.0 L18.0,87.0 L19.0,87.0 L19.0,87.0 L20.0,86.0 L21.0,87.0 L21.0,88.0 L21.0,89.0 L21.0,90.0 L20.0,91.0 L20.0,91.0 L19.0,92.0 L19.0,92.0 L19.0,92.0 L20.0,92.0 L21.0,93.0 L21.0,94.0 L21.0,95.0 L20.0,96.0 L19.0,96.0 L18.0,96.0 L17.0,96.0 L16.0,96.0 L15.0,96.0 L14.0,96.0 L13.0,96.0 L12.0,96.0 L11.0,96.0 L10.0,95.0 L10.0,94.0 L10.0,93.0 L10.0,92.0 L10.0,91.0 L10.0,90.0 L10.0,89.0 L11.0,88.0 L11.0,88.0 L12.0,87.0 L12.0,87.0 L13.0,86.0 Z M159.0,86.0 L160.0,86.0 L161.0,86.0 L162.0,86.0 L163.0,86.0 L164.0,86.0 L165.0,86.0 L166.0,86.0 L167.0,86.0 L168.0,86.0 L169.0,87.0 L169.0,88.0 L169.0,89.0 L169.0,90.0 L169.0,91.0 L169.0,92.0 L169.0,93.0 L168.0,94.0 L168.0,94.0 L168.0,95.0 L167.0,96.0 L166.0,96.0 L165.0,96.0 L164.0,96.0 L163.0,96.0 L162.0,95.0 L162.0,95.0 L161.0,94.0 L161.0,94.0 L160.0,93.0 L160.0,92.0 L160.0,91.0 L160.0,90.0 L160.0,90.0 L159.0,90.0 L158.0,89.0 L158.0,88.0 L158.0,87.0 L159.0,86.0 Z M90.0,88.0 L90.0,88.0 L90.0,88.0 L90.0,88.0 L90.0,88.0 Z M80.0,89.0 L80.0,89.0 L80.0,89.0 L80.0,89.0 L80.0,89.0 Z M92.0,89.0 L92.0,89.0 L92.0,89.0 L92.0,89.0 L92.0,89.0 Z M62.0,90.0 L62.0,90.0 L61.0,91.0 L61.0,91.0 L61.0,91.0 L62.0,91.0 L62.0,91.0 L62.0,90.0 L62.0,90.0 Z M165.0,90.0 L165.0,90.0 L164.0,91.0 L164.0,91.0 L164.0,91.0 L165.0,92.0 L165.0,92.0 L165.0,92.0 L165.0,91.0 L165.0,90.0 L165.0,90.0 Z M14.0,91.0 L14.0,91.0 L14.0,92.0 L14.0,92.0 L15.0,92.0 L15.0,92.0 L15.0,91.0 L15.0,91.0 L14.0,91.0 Z M60.0,92.0 L60.0,92.0 L60.0,92.0 L60.0,92.0 L60.0,92.0 Z M82.0,92.0 L82.0,92.0 L82.0,92.0 L82.0,92.0 L82.0,92.0 Z M97.0,92.0 L97.0,92.0 L97.0,92.0 L97.0,92.0 L97.0,92.0 Z M61.0,93.0 L61.0,93.0 L61.0,94.0 L61.0,95.0 L61.0,95.0 L61.0,95.0 L61.0,94.0 L61.0,93.0 L61.0,93.0 Z M100.0,93.0 L100.0,93.0 L99.0,94.0 L99.0,94.0 L99.0,94.0 L100.0,94.0 L101.0,95.0 L101.0,95.0 L102.0,95.0 L102.0,95.0 L102.0,95.0 L101.0,94.0 L101.0,94.0 L100.0,93.0 L100.0,93.0 Z M58.0,94.0 L58.0,94.0 L58.0,94.0 L58.0,94.0 L58.0,94.0 Z M83.0,94.0 L83.0,94.0 L83.0,95.0 L83.0,95.0 L83.0,95.0 L84.0,94.0 L84.0,94.0 L84.0,94.0 L83.0,94.0 Z M56.0,96.0 L56.0,96.0 L56.0,96.0 L56.0,96.0 L56.0,96.0 Z M104.0,96.0 L104.0,96.0 L104.0,96.0 L104.0,96.0 L104.0,96.0 Z M85.0,97.0 L85.0,97.0 L85.0,97.0 L85.0,97.0 L85.0,97.0 Z M101.0,97.0 L101.0,97.0 L101.0,98.0 L101.0,99.0 L101.0,100.0 L101.0,101.0 L101.0,101.0 L101.0,101.0 L101.0,100.0 L101.0,99.0 L101.0,98.0 L101.0,97.0 L101.0,97.0 Z M105.0,97.0 L105.0,97.0 L105.0,97.0 L105.0,97.0 L105.0,97.0 Z M158.0,96.0 L159.0,96.0 L160.0,96.0 L161.0,96.0 L162.0,96.0 L163.0,97.0 L163.0,97.0 L164.0,97.0 L165.0,97.0 L166.0,97.0 L167.0,97.0 L168.0,98.0 L168.0,98.0 L169.0,99.0 L168.0,100.0 L168.0,100.0 L168.0,101.0 L168.0,102.0 L168.0,103.0 L168.0,104.0 L168.0,105.0 L167.0,106.0 L166.0,106.0 L165.0,106.0 L164.0,105.0 L164.0,104.0 L164.0,103.0 L164.0,102.0 L164.0,102.0 L164.0,102.0 L164.0,103.0 L164.0,104.0 L164.0,105.0 L163.0,106.0 L162.0,105.0 L162.0,105.0 L161.0,105.0 L160.0,104.0 L160.0,103.0 L161.0,102.0 L161.0,102.0 L161.0,101.0 L161.0,101.0 L161.0,101.0 L160.0,102.0 L160.0,102.0 L160.0,103.0 L160.0,104.0 L160.0,105.0 L159.0,106.0 L158.0,106.0 L157.0,105.0 L157.0,105.0 L156.0,104.0 L156.0,103.0 L157.0,102.0 L157.0,102.0 L157.0,101.0 L157.0,100.0 L157.0,99.0 L157.0,98.0 L157.0,97.0 L158.0,96.0 Z M12.0,97.0 L13.0,97.0 L14.0,98.0 L14.0,99.0 L14.0,100.0 L14.0,100.0 L15.0,101.0 L15.0,102.0 L15.0,102.0 L15.0,102.0 L15.0,101.0 L15.0,100.0 L15.0,99.0 L15.0,98.0 L16.0,97.0 L17.0,97.0 L18.0,98.0 L18.0,99.0 L18.0,99.0 L19.0,100.0 L19.0,101.0 L19.0,101.0 L20.0,101.0 L21.0,101.0 L22.0,102.0 L22.0,103.0 L22.0,103.0 L23.0,104.0 L22.0,105.0 L21.0,105.0 L21.0,105.0 L20.0,106.0 L19.0,106.0 L18.0,106.0 L17.0,106.0 L16.0,106.0 L15.0,106.0 L14.0,106.0 L14.0,106.0 L13.0,107.0 L12.0,106.0 L12.0,106.0 L11.0,105.0 L11.0,104.0 L11.0,103.0 L11.0,102.0 L11.0,101.0 L11.0,101.0 L10.0,100.0 L10.0,99.0 L11.0,98.0 L11.0,98.0 L12.0,97.0 Z M54.0,98.0 L54.0,98.0 L54.0,98.0 L54.0,98.0 L54.0,98.0 Z M53.0,99.0 L53.0,99.0 L53.0,99.0 L53.0,99.0 L53.0,99.0 Z M109.0,99.0 L109.0,99.0 L109.0,99.0 L109.0,99.0 L109.0,99.0 Z M87.0,100.0 L87.0,100.0 L87.0,100.0 L87.0,100.0 L87.0,100.0 Z M51.0,101.0 L51.0,101.0 L51.0,101.0 L51.0,101.0 L51.0,101.0 Z M112.0,101.0 L112.0,101.0 L112.0,101.0 L112.0,101.0 L112.0,101.0 Z M48.0,103.0 L48.0,103.0 L48.0,104.0 L48.0,104.0 L49.0,105.0 L49.0,105.0 L49.0,105.0 L50.0,104.0 L50.0,104.0 L50.0,103.0 L50.0,103.0 L49.0,103.0 L48.0,103.0 Z M89.0,103.0 L89.0,103.0 L89.0,103.0 L89.0,103.0 L89.0,103.0 Z M116.0,103.0 L116.0,103.0 L116.0,103.0 L116.0,103.0 L116.0,103.0 Z M59.0,104.0 L59.0,104.0 L59.0,105.0 L58.0,106.0 L57.0,106.0 L56.0,106.0 L56.0,106.0 L56.0,106.0 L57.0,106.0 L58.0,106.0 L59.0,107.0 L59.0,107.0 L59.0,107.0 L59.0,106.0 L59.0,105.0 L59.0,104.0 L59.0,104.0 Z M117.0,104.0 L117.0,104.0 L117.0,104.0 L117.0,104.0 L117.0,104.0 Z M79.0,105.0 L79.0,105.0 L79.0,106.0 L79.0,107.0 L79.0,107.0 L80.0,107.0 L81.0,107.0 L81.0,107.0 L81.0,106.0 L81.0,106.0 L80.0,105.0 L80.0,105.0 L79.0,105.0 Z M102.0,105.0 L102.0,105.0 L102.0,106.0 L102.0,107.0 L102.0,107.0 L102.0,107.0 L102.0,106.0 L102.0,105.0 L102.0,105.0 Z M121.0,106.0 L121.0,106.0 L121.0,107.0 L121.0,107.0 L122.0,107.0 L122.0,107.0 L122.0,106.0 L122.0,106.0 L121.0,106.0 Z M1.0,108.0 L1.0,108.0 L1.0,108.0 L1.0,108.0 L1.0,108.0 Z M77.0,108.0 L77.0,108.0 L77.0,108.0 L77.0,108.0 L77.0,108.0 Z M92.0,108.0 L92.0,108.0 L92.0,108.0 L92.0,108.0 L92.0,108.0 Z M120.0,108.0 L120.0,108.0 L120.0,108.0 L120.0,108.0 L120.0,108.0 Z M125.0,108.0 L125.0,108.0 L125.0,108.0 L125.0,108.0 L125.0,108.0 Z M178.0,108.0 L178.0,108.0 L178.0,108.0 L178.0,108.0 L178.0,108.0 Z M126.0,109.0 L126.0,109.0 L126.0,109.0 L126.0,109.0 L126.0,109.0 Z M85.0,110.0 L85.0,110.0 L85.0,110.0 L85.0,110.0 L85.0,110.0 Z M2.0,111.0 L2.0,111.0 L2.0,112.0 L2.0,112.0 L2.0,112.0 L2.0,111.0 L2.0,111.0 Z M73.0,111.0 L73.0,111.0 L73.0,111.0 L73.0,111.0 L73.0,111.0 Z M86.0,111.0 L86.0,111.0 L86.0,111.0 L86.0,111.0 L86.0,111.0 Z M94.0,111.0 L94.0,111.0 L94.0,111.0 L94.0,111.0 L94.0,111.0 Z M118.0,111.0 L118.0,111.0 L118.0,111.0 L118.0,111.0 L118.0,111.0 Z M130.0,111.0 L130.0,111.0 L130.0,111.0 L130.0,111.0 L130.0,111.0 Z M177.0,111.0 L177.0,111.0 L177.0,112.0 L177.0,112.0 L177.0,112.0 L177.0,111.0 L177.0,111.0 Z M18.0,111.0 L19.0,112.0 L19.0,112.0 L20.0,113.0 L20.0,114.0 L20.0,115.0 L20.0,115.0 L21.0,116.0 L21.0,117.0 L21.0,117.0 L22.0,118.0 L22.0,119.0 L22.0,119.0 L23.0,120.0 L23.0,121.0 L23.0,122.0 L23.0,122.0 L24.0,123.0 L24.0,123.0 L25.0,124.0 L25.0,125.0 L25.0,125.0 L26.0,126.0 L26.0,127.0 L26.0,127.0 L27.0,128.0 L27.0,128.0 L28.0,129.0 L28.0,130.0 L28.0,130.0 L29.0,131.0 L29.0,131.0 L30.0,132.0 L30.0,133.0 L30.0,133.0 L31.0,134.0 L31.0,134.0 L32.0,135.0 L32.0,136.0 L32.0,136.0 L33.0,137.0 L33.0,137.0 L34.0,138.0 L34.0,138.0 L35.0,139.0 L35.0,139.0 L36.0,140.0 L36.0,140.0 L37.0,141.0 L37.0,142.0 L37.0,142.0 L38.0,143.0 L37.0,144.0 L36.0,143.0 L36.0,143.0 L35.0,142.0 L35.0,142.0 L34.0,141.0 L34.0,141.0 L33.0,140.0 L33.0,140.0 L32.0,139.0 L32.0,139.0 L31.0,138.0 L31.0,138.0 L30.0,137.0 L30.0,136.0 L30.0,136.0 L29.0,135.0 L29.0,135.0 L28.0,134.0 L28.0,134.0 L27.0,133.0 L27.0,133.0 L26.0,132.0 L26.0,131.0 L26.0,131.0 L25.0,130.0 L25.0,129.0 L25.0,129.0 L24.0,128.0 L24.0,128.0 L23.0,127.0 L23.0,126.0 L23.0,126.0 L22.0,125.0 L22.0,124.0 L22.0,124.0 L21.0,123.0 L21.0,122.0 L21.0,122.0 L20.0,121.0 L20.0,120.0 L20.0,119.0 L20.0,119.0 L19.0,118.0 L19.0,117.0 L19.0,116.0 L19.0,116.0 L18.0,115.0 L18.0,114.0 L18.0,113.0 L18.0,113.0 L17.0,112.0 L18.0,111.0 Z M161.0,111.0 L162.0,112.0 L162.0,113.0 L161.0,114.0 L161.0,114.0 L161.0,115.0 L161.0,116.0 L160.0,117.0 L160.0,117.0 L160.0,118.0 L160.0,119.0 L159.0,120.0 L159.0,120.0 L159.0,121.0 L158.0,122.0 L158.0,122.0 L158.0,123.0 L158.0,124.0 L157.0,125.0 L157.0,125.0 L156.0,126.0 L156.0,126.0 L156.0,127.0 L155.0,128.0 L155.0,128.0 L155.0,129.0 L154.0,130.0 L154.0,130.0 L153.0,131.0 L153.0,131.0 L153.0,132.0 L152.0,133.0 L152.0,133.0 L151.0,134.0 L151.0,134.0 L151.0,135.0 L150.0,136.0 L150.0,136.0 L149.0,137.0 L149.0,137.0 L148.0,138.0 L148.0,138.0 L147.0,139.0 L147.0,139.0 L146.0,140.0 L146.0,140.0 L145.0,141.0 L145.0,141.0 L144.0,142.0 L144.0,142.0 L143.0,143.0 L143.0,143.0 L142.0,144.0 L142.0,144.0 L141.0,145.0 L140.0,144.0 L141.0,143.0 L141.0,143.0 L142.0,142.0 L142.0,142.0 L143.0,141.0 L143.0,141.0 L144.0,140.0 L144.0,140.0 L145.0,139.0 L145.0,139.0 L145.0,138.0 L146.0,137.0 L146.0,137.0 L147.0,136.0 L147.0,136.0 L148.0,135.0 L148.0,135.0 L148.0,134.0 L149.0,133.0 L149.0,133.0 L150.0,132.0 L150.0,132.0 L151.0,131.0 L151.0,131.0 L151.0,130.0 L152.0,129.0 L152.0,129.0 L152.0,128.0 L153.0,127.0 L153.0,127.0 L154.0,126.0 L154.0,126.0 L154.0,125.0 L155.0,124.0 L155.0,124.0 L155.0,123.0 L156.0,122.0 L156.0,122.0 L156.0,121.0 L157.0,120.0 L157.0,120.0 L157.0,119.0 L158.0,118.0 L158.0,118.0 L158.0,117.0 L159.0,116.0 L159.0,116.0 L159.0,115.0 L159.0,114.0 L160.0,113.0 L160.0,113.0 L160.0,112.0 L161.0,111.0 Z M70.0,113.0 L70.0,113.0 L70.0,113.0 L70.0,113.0 L70.0,113.0 Z M88.0,113.0 L88.0,113.0 L88.0,113.0 L88.0,113.0 L88.0,113.0 Z M116.0,113.0 L116.0,113.0 L116.0,113.0 L116.0,113.0 L116.0,113.0 Z M134.0,113.0 L134.0,113.0 L134.0,113.0 L135.0,113.0 L135.0,113.0 L135.0,113.0 L134.0,113.0 Z M2.0,114.0 L2.0,114.0 L2.0,114.0 L2.0,114.0 L2.0,114.0 Z M115.0,114.0 L115.0,114.0 L115.0,114.0 L115.0,114.0 L115.0,114.0 Z M177.0,114.0 L177.0,114.0 L177.0,114.0 L177.0,114.0 L177.0,114.0 Z M67.0,115.0 L67.0,115.0 L67.0,115.0 L67.0,115.0 L67.0,115.0 Z M139.0,115.0 L139.0,115.0 L139.0,115.0 L139.0,115.0 L139.0,115.0 Z M3.0,116.0 L3.0,116.0 L3.0,117.0 L3.0,117.0 L3.0,117.0 L3.0,116.0 L3.0,116.0 Z M66.0,116.0 L66.0,116.0 L66.0,116.0 L66.0,116.0 L66.0,116.0 Z M97.0,116.0 L97.0,116.0 L97.0,116.0 L97.0,116.0 L97.0,116.0 Z M176.0,116.0 L176.0,116.0 L176.0,117.0 L176.0,117.0 L176.0,117.0 L176.0,116.0 L176.0,116.0 Z M4.0,118.0 L4.0,118.0 L4.0,119.0 L4.0,119.0 L4.0,119.0 L4.0,118.0 L4.0,118.0 Z M63.0,118.0 L63.0,118.0 L63.0,118.0 L63.0,118.0 L63.0,118.0 Z M94.0,118.0 L94.0,118.0 L94.0,118.0 L94.0,118.0 L94.0,118.0 Z M103.0,118.0 L103.0,118.0 L103.0,119.0 L103.0,119.0 L103.0,119.0 L103.0,118.0 L103.0,118.0 Z M137.0,118.0 L137.0,118.0 L137.0,118.0 L138.0,118.0 L138.0,118.0 L138.0,118.0 L137.0,118.0 Z M175.0,118.0 L175.0,118.0 L175.0,119.0 L175.0,119.0 L175.0,119.0 L175.0,118.0 L175.0,118.0 Z M99.0,119.0 L99.0,119.0 L99.0,119.0 L99.0,119.0 L99.0,119.0 Z M111.0,119.0 L111.0,119.0 L111.0,119.0 L111.0,119.0 L111.0,119.0 Z M59.0,120.0 L59.0,120.0 L58.0,121.0 L58.0,121.0 L58.0,121.0 L59.0,121.0 L59.0,121.0 L60.0,120.0 L60.0,120.0 L60.0,120.0 L59.0,120.0 Z M96.0,120.0 L96.0,120.0 L96.0,120.0 L96.0,120.0 L96.0,120.0 Z M129.0,120.0 L129.0,120.0 L129.0,120.0 L130.0,120.0 L130.0,120.0 L130.0,120.0 L129.0,120.0 Z M138.0,120.0 L138.0,120.0 L138.0,120.0 L138.0,120.0 L138.0,120.0 Z M127.0,121.0 L127.0,121.0 L127.0,121.0 L127.0,121.0 L127.0,121.0 Z M137.0,121.0 L137.0,121.0 L137.0,121.0 L137.0,121.0 L137.0,121.0 Z M99.0,122.0 L99.0,122.0 L99.0,122.0 L99.0,122.0 L99.0,122.0 Z M101.0,122.0 L101.0,122.0 L101.0,122.0 L101.0,122.0 L101.0,122.0 Z M108.0,122.0 L108.0,122.0 L108.0,122.0 L108.0,122.0 L108.0,122.0 Z M122.0,122.0 L122.0,122.0 L122.0,122.0 L122.0,122.0 L122.0,122.0 Z M174.0,122.0 L174.0,122.0 L174.0,122.0 L174.0,122.0 L174.0,122.0 Z M104.0,123.0 L104.0,123.0 L104.0,124.0 L103.0,125.0 L102.0,125.0 L102.0,125.0 L102.0,125.0 L103.0,126.0 L102.0,127.0 L102.0,127.0 L102.0,127.0 L103.0,127.0 L104.0,127.0 L105.0,127.0 L105.0,127.0 L105.0,126.0 L105.0,126.0 L104.0,125.0 L104.0,124.0 L104.0,123.0 L104.0,123.0 Z M119.0,123.0 L119.0,123.0 L119.0,123.0 L119.0,123.0 L119.0,123.0 Z M134.0,123.0 L134.0,123.0 L134.0,123.0 L134.0,123.0 L134.0,123.0 Z M101.0,124.0 L101.0,124.0 L101.0,124.0 L101.0,124.0 L101.0,124.0 Z M65.0,125.0 L65.0,125.0 L65.0,125.0 L66.0,125.0 L66.0,125.0 L66.0,125.0 L65.0,125.0 Z M110.0,125.0 L110.0,125.0 L110.0,125.0 L111.0,125.0 L112.0,125.0 L112.0,125.0 L112.0,125.0 L111.0,125.0 L110.0,125.0 Z M132.0,125.0 L132.0,125.0 L132.0,125.0 L132.0,125.0 L132.0,125.0 Z M7.0,127.0 L7.0,127.0 L7.0,127.0 L7.0,127.0 L7.0,127.0 Z M129.0,127.0 L129.0,127.0 L129.0,127.0 L129.0,127.0 L129.0,127.0 Z M172.0,127.0 L172.0,127.0 L172.0,127.0 L172.0,127.0 L172.0,127.0 Z M100.0,128.0 L100.0,128.0 L100.0,128.0 L100.0,128.0 L100.0,128.0 Z M128.0,128.0 L128.0,128.0 L128.0,128.0 L128.0,128.0 L128.0,128.0 Z M8.0,129.0 L8.0,129.0 L8.0,129.0 L8.0,129.0 L8.0,129.0 Z M95.0,129.0 L95.0,129.0 L95.0,129.0 L95.0,129.0 L95.0,129.0 Z M171.0,129.0 L171.0,129.0 L171.0,129.0 L171.0,129.0 L171.0,129.0 Z M9.0,130.0 L9.0,130.0 L9.0,130.0 L9.0,130.0 L9.0,130.0 Z M91.0,130.0 L91.0,130.0 L91.0,130.0 L92.0,130.0 L92.0,130.0 L92.0,130.0 L91.0,130.0 Z M170.0,130.0 L170.0,130.0 L170.0,130.0 L170.0,130.0 L170.0,130.0 Z M10.0,133.0 L10.0,133.0 L10.0,133.0 L10.0,133.0 L10.0,133.0 Z M169.0,133.0 L169.0,133.0 L169.0,133.0 L169.0,133.0 L169.0,133.0 Z M11.0,134.0 L11.0,134.0 L11.0,134.0 L11.0,134.0 L11.0,134.0 Z M168.0,134.0 L168.0,134.0 L168.0,134.0 L168.0,134.0 L168.0,134.0 Z M13.0,138.0 L13.0,138.0 L13.0,138.0 L13.0,138.0 L13.0,138.0 Z M166.0,138.0 L166.0,138.0 L166.0,138.0 L166.0,138.0 L166.0,138.0 Z M14.0,140.0 L14.0,140.0 L14.0,140.0 L14.0,140.0 L14.0,140.0 Z M165.0,140.0 L165.0,140.0 L165.0,140.0 L165.0,140.0 L165.0,140.0 Z M15.0,141.0 L15.0,141.0 L15.0,141.0 L15.0,141.0 L15.0,141.0 Z M164.0,141.0 L164.0,141.0 L164.0,141.0 L164.0,141.0 L164.0,141.0 Z M16.0,142.0 L16.0,142.0 L16.0,142.0 L16.0,142.0 L16.0,142.0 Z M163.0,142.0 L163.0,142.0 L163.0,142.0 L163.0,142.0 L163.0,142.0 Z M18.0,145.0 L18.0,145.0 L18.0,145.0 L18.0,145.0 L18.0,145.0 Z M56.0,144.0 L57.0,144.0 L58.0,145.0 L58.0,146.0 L58.0,147.0 L57.0,148.0 L57.0,148.0 L56.0,149.0 L56.0,149.0 L56.0,150.0 L55.0,151.0 L55.0,151.0 L55.0,152.0 L55.0,152.0 L55.0,152.0 L56.0,151.0 L56.0,151.0 L57.0,150.0 L58.0,150.0 L58.0,150.0 L59.0,149.0 L60.0,149.0 L60.0,149.0 L61.0,148.0 L62.0,148.0 L63.0,148.0 L64.0,149.0 L63.0,150.0 L63.0,150.0 L63.0,151.0 L62.0,152.0 L62.0,152.0 L61.0,153.0 L61.0,153.0 L60.0,154.0 L60.0,154.0 L59.0,155.0 L59.0,155.0 L59.0,156.0 L58.0,157.0 L58.0,157.0 L57.0,158.0 L57.0,158.0 L56.0,159.0 L56.0,159.0 L56.0,160.0 L55.0,161.0 L54.0,161.0 L53.0,160.0 L53.0,159.0 L54.0,158.0 L54.0,158.0 L54.0,157.0 L55.0,156.0 L55.0,156.0 L56.0,155.0 L56.0,155.0 L57.0,154.0 L57.0,154.0 L57.0,154.0 L56.0,154.0 L56.0,154.0 L55.0,155.0 L54.0,155.0 L54.0,155.0 L53.0,156.0 L52.0,156.0 L52.0,156.0 L51.0,157.0 L50.0,156.0 L50.0,156.0 L49.0,155.0 L50.0,154.0 L50.0,154.0 L51.0,153.0 L51.0,153.0 L51.0,152.0 L52.0,151.0 L52.0,151.0 L52.0,151.0 L51.0,151.0 L51.0,151.0 L50.0,152.0 L50.0,152.0 L49.0,153.0 L48.0,153.0 L47.0,153.0 L47.0,153.0 L46.0,154.0 L45.0,154.0 L44.0,154.0 L43.0,154.0 L42.0,153.0 L42.0,152.0 L43.0,151.0 L44.0,151.0 L45.0,151.0 L46.0,151.0 L46.0,151.0 L47.0,150.0 L48.0,150.0 L48.0,150.0 L49.0,149.0 L49.0,149.0 L50.0,148.0 L51.0,148.0 L51.0,148.0 L52.0,147.0 L53.0,147.0 L53.0,147.0 L54.0,146.0 L54.0,146.0 L55.0,145.0 L55.0,145.0 L56.0,144.0 Z M161.0,145.0 L161.0,145.0 L161.0,145.0 L161.0,145.0 L161.0,145.0 Z M21.0,148.0 L21.0,148.0 L21.0,149.0 L21.0,149.0 L21.0,149.0 L21.0,148.0 L21.0,148.0 Z M158.0,148.0 L158.0,148.0 L158.0,149.0 L158.0,149.0 L158.0,149.0 L158.0,148.0 L158.0,148.0 Z M22.0,150.0 L22.0,150.0 L22.0,150.0 L22.0,150.0 L22.0,150.0 Z M127.0,149.0 L128.0,149.0 L129.0,149.0 L130.0,150.0 L130.0,150.0 L131.0,151.0 L131.0,152.0 L131.0,153.0 L131.0,154.0 L131.0,155.0 L131.0,156.0 L130.0,157.0 L130.0,157.0 L129.0,158.0 L129.0,158.0 L128.0,159.0 L127.0,159.0 L126.0,159.0 L125.0,158.0 L125.0,158.0 L125.0,158.0 L125.0,159.0 L124.0,160.0 L124.0,160.0 L123.0,161.0 L123.0,161.0 L122.0,162.0 L121.0,162.0 L120.0,161.0 L120.0,160.0 L120.0,159.0 L120.0,158.0 L120.0,157.0 L120.0,157.0 L120.0,157.0 L120.0,158.0 L120.0,159.0 L119.0,160.0 L119.0,160.0 L118.0,161.0 L118.0,161.0 L117.0,162.0 L117.0,162.0 L116.0,163.0 L116.0,163.0 L115.0,164.0 L115.0,164.0 L114.0,165.0 L113.0,165.0 L113.0,165.0 L112.0,166.0 L111.0,165.0 L111.0,165.0 L110.0,165.0 L109.0,165.0 L108.0,165.0 L108.0,165.0 L107.0,166.0 L107.0,166.0 L106.0,167.0 L105.0,167.0 L105.0,167.0 L104.0,168.0 L103.0,168.0 L102.0,168.0 L101.0,167.0 L101.0,167.0 L100.0,167.0 L100.0,167.0 L99.0,168.0 L98.0,168.0 L98.0,168.0 L97.0,169.0 L96.0,168.0 L96.0,168.0 L95.0,167.0 L95.0,167.0 L95.0,167.0 L94.0,168.0 L94.0,168.0 L93.0,169.0 L92.0,169.0 L91.0,169.0 L90.0,169.0 L89.0,168.0 L89.0,168.0 L88.0,168.0 L88.0,168.0 L87.0,169.0 L86.0,169.0 L85.0,169.0 L84.0,169.0 L83.0,168.0 L83.0,168.0 L82.0,167.0 L82.0,167.0 L81.0,167.0 L81.0,167.0 L80.0,168.0 L79.0,168.0 L78.0,168.0 L77.0,168.0 L76.0,167.0 L76.0,167.0 L75.0,167.0 L74.0,167.0 L73.0,167.0 L72.0,167.0 L71.0,166.0 L71.0,165.0 L71.0,164.0 L72.0,163.0 L72.0,163.0 L73.0,162.0 L73.0,162.0 L73.0,162.0 L72.0,162.0 L71.0,162.0 L71.0,162.0 L70.0,163.0 L70.0,163.0 L69.0,164.0 L69.0,164.0 L68.0,165.0 L68.0,165.0 L67.0,166.0 L66.0,165.0 L66.0,164.0 L66.0,163.0 L66.0,163.0 L65.0,163.0 L64.0,163.0 L63.0,163.0 L62.0,163.0 L62.0,163.0 L61.0,164.0 L60.0,163.0 L60.0,163.0 L59.0,163.0 L58.0,162.0 L58.0,162.0 L57.0,161.0 L58.0,160.0 L58.0,160.0 L58.0,159.0 L59.0,158.0 L59.0,158.0 L60.0,157.0 L60.0,157.0 L61.0,156.0 L62.0,156.0 L63.0,156.0 L64.0,156.0 L65.0,156.0 L66.0,156.0 L67.0,157.0 L67.0,158.0 L67.0,159.0 L67.0,160.0 L67.0,160.0 L68.0,160.0 L69.0,160.0 L69.0,160.0 L70.0,159.0 L70.0,159.0 L71.0,158.0 L72.0,159.0 L72.0,159.0 L73.0,159.0 L74.0,159.0 L75.0,159.0 L76.0,159.0 L77.0,160.0 L77.0,161.0 L76.0,162.0 L76.0,162.0 L75.0,163.0 L75.0,163.0 L75.0,164.0 L75.0,164.0 L76.0,164.0 L76.0,164.0 L77.0,163.0 L77.0,163.0 L78.0,162.0 L78.0,162.0 L78.0,162.0 L77.0,161.0 L78.0,160.0 L79.0,160.0 L79.0,160.0 L80.0,159.0 L80.0,159.0 L81.0,158.0 L81.0,158.0 L81.0,157.0 L82.0,156.0 L83.0,156.0 L84.0,156.0 L85.0,157.0 L84.0,158.0 L84.0,158.0 L84.0,159.0 L83.0,160.0 L83.0,160.0 L83.0,160.0 L84.0,161.0 L84.0,161.0 L85.0,161.0 L85.0,161.0 L86.0,160.0 L87.0,160.0 L88.0,160.0 L89.0,161.0 L89.0,161.0 L90.0,162.0 L90.0,163.0 L89.0,164.0 L89.0,164.0 L88.0,165.0 L88.0,165.0 L88.0,165.0 L89.0,165.0 L89.0,165.0 L90.0,164.0 L90.0,164.0 L90.0,163.0 L91.0,162.0 L91.0,162.0 L91.0,161.0 L92.0,160.0 L92.0,160.0 L92.0,159.0 L92.0,158.0 L93.0,157.0 L93.0,157.0 L93.0,156.0 L94.0,155.0 L94.0,155.0 L95.0,154.0 L96.0,154.0 L97.0,155.0 L97.0,156.0 L96.0,157.0 L96.0,157.0 L96.0,158.0 L95.0,159.0 L95.0,159.0 L95.0,160.0 L94.0,161.0 L94.0,161.0 L94.0,162.0 L94.0,163.0 L93.0,164.0 L93.0,164.0 L93.0,165.0 L92.0,166.0 L92.0,166.0 L92.0,166.0 L93.0,166.0 L93.0,166.0 L94.0,165.0 L94.0,165.0 L95.0,164.0 L95.0,164.0 L95.0,163.0 L96.0,162.0 L96.0,162.0 L96.0,161.0 L97.0,160.0 L98.0,160.0 L99.0,161.0 L99.0,162.0 L99.0,163.0 L98.0,164.0 L98.0,164.0 L98.0,165.0 L98.0,165.0 L99.0,165.0 L99.0,165.0 L100.0,164.0 L100.0,164.0 L100.0,163.0 L101.0,162.0 L101.0,162.0 L101.0,161.0 L101.0,160.0 L101.0,159.0 L102.0,158.0 L102.0,158.0 L102.0,157.0 L102.0,156.0 L102.0,155.0 L102.0,154.0 L103.0,153.0 L104.0,153.0 L105.0,153.0 L106.0,154.0 L105.0,155.0 L105.0,155.0 L105.0,156.0 L105.0,157.0 L105.0,158.0 L104.0,159.0 L104.0,159.0 L104.0,159.0 L105.0,159.0 L105.0,159.0 L106.0,158.0 L107.0,158.0 L108.0,159.0 L108.0,159.0 L109.0,160.0 L109.0,161.0 L109.0,162.0 L109.0,162.0 L109.0,162.0 L109.0,161.0 L109.0,160.0 L110.0,159.0 L110.0,159.0 L111.0,158.0 L111.0,158.0 L112.0,157.0 L112.0,157.0 L113.0,156.0 L114.0,156.0 L115.0,157.0 L115.0,157.0 L116.0,158.0 L116.0,159.0 L115.0,160.0 L115.0,160.0 L115.0,161.0 L115.0,161.0 L115.0,161.0 L116.0,160.0 L116.0,160.0 L116.0,159.0 L117.0,158.0 L117.0,158.0 L117.0,158.0 L116.0,157.0 L116.0,156.0 L117.0,155.0 L118.0,155.0 L119.0,155.0 L119.0,155.0 L120.0,154.0 L120.0,154.0 L121.0,153.0 L122.0,153.0 L123.0,154.0 L123.0,154.0 L124.0,155.0 L123.0,156.0 L123.0,156.0 L123.0,157.0 L123.0,157.0 L123.0,157.0 L124.0,156.0 L124.0,156.0 L124.0,155.0 L124.0,154.0 L124.0,153.0 L125.0,152.0 L125.0,152.0 L125.0,151.0 L126.0,150.0 L126.0,150.0 L127.0,149.0 Z M157.0,150.0 L157.0,150.0 L157.0,150.0 L157.0,150.0 L157.0,150.0 Z M23.0,151.0 L23.0,151.0 L23.0,151.0 L23.0,151.0 L23.0,151.0 Z M24.0,152.0 L24.0,152.0 L24.0,152.0 L24.0,152.0 L24.0,152.0 Z M155.0,152.0 L155.0,152.0 L155.0,152.0 L155.0,152.0 L155.0,152.0 Z M25.0,153.0 L25.0,153.0 L25.0,153.0 L25.0,153.0 L25.0,153.0 Z M127.0,153.0 L127.0,153.0 L127.0,154.0 L127.0,155.0 L127.0,156.0 L127.0,156.0 L128.0,156.0 L128.0,156.0 L128.0,155.0 L128.0,154.0 L128.0,153.0 L128.0,153.0 L127.0,153.0 Z M154.0,153.0 L154.0,153.0 L154.0,153.0 L154.0,153.0 L154.0,153.0 Z M26.0,154.0 L26.0,154.0 L26.0,154.0 L26.0,154.0 L26.0,154.0 Z M153.0,154.0 L153.0,154.0 L153.0,154.0 L153.0,154.0 L153.0,154.0 Z M27.0,155.0 L27.0,155.0 L27.0,155.0 L27.0,155.0 L27.0,155.0 Z M152.0,155.0 L152.0,155.0 L152.0,155.0 L152.0,155.0 L152.0,155.0 Z M151.0,156.0 L151.0,156.0 L151.0,156.0 L151.0,156.0 L151.0,156.0 Z M29.0,157.0 L29.0,157.0 L29.0,157.0 L29.0,157.0 L29.0,157.0 Z M30.0,158.0 L30.0,158.0 L30.0,158.0 L31.0,158.0 L31.0,158.0 L31.0,158.0 L30.0,158.0 Z M98.0,157.0 L99.0,157.0 L100.0,157.0 L101.0,158.0 L100.0,159.0 L100.0,159.0 L99.0,160.0 L98.0,160.0 L97.0,159.0 L97.0,158.0 L98.0,157.0 Z M148.0,158.0 L148.0,158.0 L148.0,158.0 L149.0,158.0 L149.0,158.0 L149.0,158.0 L148.0,158.0 Z M62.0,159.0 L62.0,159.0 L61.0,160.0 L61.0,160.0 L61.0,161.0 L61.0,161.0 L62.0,161.0 L62.0,161.0 L63.0,160.0 L63.0,160.0 L64.0,159.0 L64.0,159.0 L64.0,159.0 L63.0,159.0 L62.0,159.0 Z M113.0,159.0 L113.0,159.0 L113.0,159.0 L113.0,159.0 L113.0,159.0 Z M112.0,160.0 L112.0,160.0 L112.0,160.0 L112.0,160.0 L112.0,160.0 Z M146.0,160.0 L146.0,160.0 L146.0,160.0 L146.0,160.0 L146.0,160.0 Z M34.0,161.0 L34.0,161.0 L34.0,161.0 L34.0,161.0 L34.0,161.0 Z M145.0,161.0 L145.0,161.0 L145.0,161.0 L145.0,161.0 L145.0,161.0 Z M104.0,162.0 L104.0,162.0 L104.0,163.0 L103.0,164.0 L103.0,164.0 L103.0,164.0 L104.0,165.0 L104.0,165.0 L104.0,165.0 L105.0,164.0 L105.0,164.0 L105.0,163.0 L106.0,162.0 L106.0,162.0 L106.0,162.0 L105.0,162.0 L104.0,162.0 Z M114.0,162.0 L114.0,162.0 L114.0,162.0 L114.0,162.0 L114.0,162.0 Z M37.0,163.0 L37.0,163.0 L37.0,163.0 L37.0,163.0 L37.0,163.0 Z M81.0,163.0 L81.0,163.0 L80.0,164.0 L80.0,164.0 L79.0,165.0 L79.0,165.0 L79.0,165.0 L80.0,165.0 L81.0,165.0 L81.0,165.0 L82.0,164.0 L82.0,164.0 L83.0,163.0 L83.0,163.0 L83.0,163.0 L82.0,163.0 L81.0,163.0 Z M86.0,163.0 L86.0,163.0 L86.0,163.0 L87.0,163.0 L87.0,163.0 L87.0,163.0 L86.0,163.0 Z M142.0,163.0 L142.0,163.0 L142.0,163.0 L142.0,163.0 L142.0,163.0 Z M38.0,164.0 L38.0,164.0 L38.0,164.0 L38.0,164.0 L38.0,164.0 Z M141.0,164.0 L141.0,164.0 L141.0,164.0 L141.0,164.0 L141.0,164.0 Z M39.0,165.0 L39.0,165.0 L39.0,165.0 L39.0,165.0 L39.0,165.0 Z M140.0,165.0 L140.0,165.0 L140.0,165.0 L140.0,165.0 L140.0,165.0 Z M41.0,166.0 L41.0,166.0 L41.0,166.0 L41.0,166.0 L41.0,166.0 Z M86.0,166.0 L86.0,166.0 L86.0,166.0 L87.0,166.0 L87.0,166.0 L87.0,166.0 L86.0,166.0 Z M138.0,166.0 L138.0,166.0 L138.0,166.0 L138.0,166.0 L138.0,166.0 Z M45.0,168.0 L45.0,168.0 L45.0,168.0 L45.0,168.0 L45.0,168.0 Z M134.0,168.0 L134.0,168.0 L134.0,168.0 L134.0,168.0 L134.0,168.0 Z M133.0,169.0 L133.0,169.0 L133.0,169.0 L133.0,169.0 L133.0,169.0 Z M50.0,171.0 L50.0,171.0 L50.0,171.0 L50.0,171.0 L50.0,171.0 Z M129.0,171.0 L129.0,171.0 L129.0,171.0 L129.0,171.0 L129.0,171.0 Z M52.0,172.0 L52.0,172.0 L52.0,172.0 L53.0,172.0 L53.0,172.0 L53.0,172.0 L52.0,172.0 Z M126.0,172.0 L126.0,172.0 L126.0,172.0 L127.0,172.0 L127.0,172.0 L127.0,172.0 L126.0,172.0 Z M54.0,173.0 L54.0,173.0 L54.0,173.0 L55.0,173.0 L55.0,173.0 L55.0,173.0 L54.0,173.0 Z M124.0,173.0 L124.0,173.0 L124.0,173.0 L124.0,173.0 L124.0,173.0 Z M57.0,174.0 L57.0,174.0 L57.0,174.0 L57.0,174.0 L57.0,174.0 Z M122.0,174.0 L122.0,174.0 L122.0,174.0 L122.0,174.0 L122.0,174.0 Z M60.0,175.0 L60.0,175.0 L60.0,175.0 L60.0,175.0 L60.0,175.0 Z M119.0,175.0 L119.0,175.0 L119.0,175.0 L119.0,175.0 L119.0,175.0 Z M62.0,176.0 L62.0,176.0 L62.0,176.0 L62.0,176.0 L62.0,176.0 Z M117.0,176.0 L117.0,176.0 L117.0,176.0 L117.0,176.0 L117.0,176.0 Z M64.0,177.0 L64.0,177.0 L64.0,177.0 L65.0,177.0 L65.0,177.0 L65.0,177.0 L64.0,177.0 Z M67.0,177.0 L67.0,177.0 L67.0,177.0 L68.0,177.0 L68.0,177.0 L68.0,177.0 L67.0,177.0 Z M111.0,177.0 L111.0,177.0 L111.0,177.0 L112.0,177.0 L112.0,177.0 L112.0,177.0 L111.0,177.0 Z M114.0,177.0 L114.0,177.0 L114.0,177.0 L115.0,177.0 L115.0,177.0 L115.0,177.0 L114.0,177.0 Z M71.0,178.0 L71.0,178.0 L71.0,178.0 L71.0,178.0 L71.0,178.0 Z M108.0,178.0 L108.0,178.0 L108.0,178.0 L109.0,178.0 L109.0,178.0 L109.0,178.0 L108.0,178.0 Z" fill="black"/>
</svg>